Comme-Bold.ufo
<glyph name="numbersign" format="1">
  <advance width="1121"/>
  <unicode hex="0023"/>
  <outline>
    <contour>
      <point x="156" y="-3" type="line"/>
      <point x="316" y="-3" type="line"/>
      <point x="396" y="440" type="line"/>
      <point x="632" y="440" type="line"/>
      <point x="550" y="-3" type="line"/>
      <point x="711" y="-3" type="line"/>
      <point x="794" y="440" type="line"/>
      <point x="969" y="440" type="line"/>
      <point x="985" y="565" type="line"/>
      <point x="817" y="565" type="line"/>
      <point x="886" y="955" type="line"/>
      <point x="1051" y="955" type="line"/>
      <point x="1070" y="1082" type="line"/>
      <point x="908" y="1082" type="line"/>
      <point x="983" y="1483" type="line"/>
      <point x="820" y="1483" type="line"/>
      <point x="747" y="1082" type="line"/>
      <point x="512" y="1082" type="line"/>
      <point x="587" y="1483" type="line"/>
      <point x="426" y="1483" type="line"/>
      <point x="352" y="1082" type="line"/>
      <point x="155" y="1082" type="line"/>
      <point x="138" y="955" type="line"/>
      <point x="330" y="955" type="line"/>
      <point x="260" y="565" type="line"/>
      <point x="82" y="565" type="line"/>
      <point x="64" y="440" type="line"/>
      <point x="237" y="440" type="line"/>
    </contour>
    <contour>
      <point x="421" y="565" type="line"/>
      <point x="490" y="955" type="line"/>
      <point x="724" y="955" type="line"/>
      <point x="654" y="565" type="line"/>
    </contour>
  </outline>
</glyph>
<glyph name="asterisk" format="1">
  <advance width="1025"/>
  <unicode hex="002A"/>
  <outline>
    <contour>
      <point x="344" y="501" type="line"/>
      <point x="513" y="835" type="line"/>
      <point x="691" y="499" type="line"/>
      <point x="712" y="512"/>
      <point x="877" y="608"/>
      <point x="897" y="621" type="curve"/>
      <point x="867" y="660"/>
      <point x="699" y="885"/>
      <point x="657" y="939" type="curve"/>
      <point x="1005" y="1019" type="line"/>
      <point x="938" y="1250" type="line"/>
      <point x="599" y="1104" type="line"/>
      <point x="632" y="1508" type="line"/>
      <point x="398" y="1508" type="line"/>
      <point x="432" y="1104" type="line"/>
      <point x="95" y="1250" type="line"/>
      <point x="29" y="1019" type="line"/>
      <point x="372" y="939" type="line"/>
      <point x="133" y="621" type="line"/>
    </contour>
  </outline>
</glyph>
<glyph name="period" format="1">
  <advance width="712"/>
  <unicode hex="002E"/>
  <outline>
    <contour>
      <point x="351" y="-7" type="curve" smooth="yes"/>
      <point x="441" y="-7"/>
      <point x="508" y="43"/>
      <point x="508" y="146" type="curve" smooth="yes"/>
      <point x="508" y="251"/>
      <point x="441" y="302"/>
      <point x="351" y="302" type="curve" smooth="yes"/>
      <point x="262" y="302"/>
      <point x="195" y="251"/>
      <point x="195" y="146" type="curve" smooth="yes"/>
      <point x="195" y="41"/>
      <point x="263" y="-7"/>
    </contour>
  </outline>
</glyph>
<glyph name="zero" format="1">
  <advance width="1352"/>
  <unicode hex="0030"/>
  <outline>
    <contour>
      <point x="678" y="226" type="curve" smooth="yes"/>
      <point x="533" y="226"/>
      <point x="443" y="401"/>
      <point x="443" y="725" type="curve" smooth="yes"/>
      <point x="446" y="1041"/>
      <point x="536" y="1230"/>
      <point x="678" y="1230" type="curve" smooth="yes"/>
      <point x="822" y="1230"/>
      <point x="909" y="1049"/>
      <point x="909" y="725" type="curve" smooth="yes"/>
      <point x="909" y="401"/>
      <point x="822" y="226"/>
    </contour>
    <contour>
      <point x="678" y="-20" type="curve" smooth="yes"/>
      <point x="1048" y="-20"/>
      <point x="1260" y="267"/>
      <point x="1260" y="724" type="curve" smooth="yes"/>
      <point x="1260" y="1184"/>
      <point x="1043" y="1476"/>
      <point x="678" y="1476" type="curve" smooth="yes"/>
      <point x="311" y="1476"/>
      <point x="92" y="1184"/>
      <point x="92" y="724" type="curve" smooth="yes"/>
      <point x="92" y="267"/>
      <point x="307" y="-20"/>
    </contour>
  </outline>
</glyph>
<glyph name="one" format="1">
  <advance width="1352"/>
  <unicode hex="0031"/>
  <outline>
    <contour>
      <point x="194" y="0" type="line"/>
      <point x="1244" y="0" type="line"/>
      <point x="1244" y="226" type="line"/>
      <point x="913" y="226" type="line"/>
      <point x="913" y="1456" type="line"/>
      <point x="618" y="1456" type="line"/>
      <point x="520" y="1383"/>
      <point x="323" y="1307"/>
      <point x="197" y="1273" type="curve"/>
      <point x="197" y="1054" type="line"/>
      <point x="299" y="1066"/>
      <point x="461" y="1119"/>
      <point x="570" y="1170" type="curve"/>
      <point x="570" y="226" type="line"/>
      <point x="194" y="226" type="line"/>
    </contour>
  </outline>
</glyph>
<glyph name="two" format="1">
  <advance width="1352"/>
  <unicode hex="0032"/>
  <outline>
    <contour>
      <point x="227" y="0" type="line"/>
      <point x="1148" y="0" type="line"/>
      <point x="1157" y="228" type="line"/>
      <point x="554" y="228" type="line"/>
      <point x="899" y="555" type="line" smooth="yes"/>
      <point x="1099" y="744"/>
      <point x="1169" y="873"/>
      <point x="1169" y="1024" type="curve" smooth="yes"/>
      <point x="1169" y="1258"/>
      <point x="1023" y="1476"/>
      <point x="656" y="1476" type="curve" smooth="yes"/>
      <point x="418" y="1476"/>
      <point x="232" y="1353"/>
      <point x="125" y="1224" type="curve"/>
      <point x="275" y="1063" type="line"/>
      <point x="299" y="1063" type="line"/>
      <point x="385" y="1164"/>
      <point x="521" y="1233"/>
      <point x="653" y="1233" type="curve" smooth="yes"/>
      <point x="773" y="1233"/>
      <point x="866" y="1157"/>
      <point x="866" y="1028" type="curve" smooth="yes"/>
      <point x="866" y="928"/>
      <point x="819" y="855"/>
      <point x="717" y="755" type="curve" smooth="yes"/>
      <point x="176" y="223" type="line"/>
    </contour>
  </outline>
</glyph>
<glyph name="four" format="1">
  <advance width="1352"/>
  <unicode hex="0034"/>
  <outline>
    <contour>
      <point x="716" y="0" type="line"/>
      <point x="1052" y="0" type="line"/>
      <point x="1052" y="335" type="line"/>
      <point x="1245" y="335" type="line"/>
      <point x="1259" y="553" type="line"/>
      <point x="1052" y="553" type="line"/>
      <point x="1052" y="1456" type="line"/>
      <point x="663" y="1456" type="line"/>
      <point x="102" y="537" type="line"/>
      <point x="126" y="335" type="line"/>
      <point x="716" y="335" type="line"/>
    </contour>
    <contour>
      <point x="357" y="548" type="line"/>
      <point x="715" y="1140" type="line"/>
      <point x="715" y="548" type="line"/>
    </contour>
  </outline>
</glyph>
<glyph name="five" format="1">
  <advance width="1352"/>
  <unicode hex="0035"/>
  <outline>
    <contour>
      <point x="680" y="-20" type="curve" smooth="yes"/>
      <point x="1017" y="-20"/>
      <point x="1197" y="213"/>
      <point x="1197" y="482" type="curve" smooth="yes"/>
      <point x="1197" y="712"/>
      <point x="1056" y="953"/>
      <point x="737" y="953" type="curve" smooth="yes"/>
      <point x="633" y="953"/>
      <point x="562" y="925"/>
      <point x="503" y="874" type="curve"/>
      <point x="546" y="1237" type="line"/>
      <point x="1094" y="1237" type="line"/>
      <point x="1124" y="1456" type="line"/>
      <point x="292" y="1456" type="line"/>
      <point x="232" y="655" type="line"/>
      <point x="468" y="617" type="line"/>
      <point x="499" y="699"/>
      <point x="568" y="739"/>
      <point x="681" y="739" type="curve" smooth="yes"/>
      <point x="818" y="739"/>
      <point x="893" y="620"/>
      <point x="893" y="494" type="curve" smooth="yes"/>
      <point x="893" y="334"/>
      <point x="813" y="224"/>
      <point x="647" y="224" type="curve" smooth="yes"/>
      <point x="536" y="224"/>
      <point x="414" y="266"/>
      <point x="348" y="376" type="curve"/>
      <point x="329" y="376" type="line"/>
      <point x="171" y="206" type="line"/>
      <point x="265" y="64"/>
      <point x="424" y="-20"/>
    </contour>
  </outline>
</glyph>
<glyph name="seven" format="1">
  <advance width="1352"/>
  <unicode hex="0037"/>
  <outline>
    <contour>
      <point x="325" y="0" type="line"/>
      <point x="673" y="0" type="line"/>
      <point x="1178" y="1220" type="line"/>
      <point x="1173" y="1456" type="line"/>
      <point x="181" y="1456" type="line"/>
      <point x="193" y="1221" type="line"/>
      <point x="828" y="1221" type="line"/>
    </contour>
  </outline>
</glyph>
<glyph name="colon" format="1">
  <advance width="696"/>
  <unicode hex="003A"/>
  <outline>
    <contour>
      <point x="353" y="-7" type="curve" smooth="yes"/>
      <point x="446" y="-7"/>
      <point x="515" y="48"/>
      <point x="515" y="147" type="curve" smooth="yes"/>
      <point x="515" y="248"/>
      <point x="446" y="305"/>
      <point x="353" y="305" type="curve" smooth="yes"/>
      <point x="261" y="305"/>
      <point x="191" y="248"/>
      <point x="191" y="147" type="curve" smooth="yes"/>
      <point x="191" y="46"/>
      <point x="263" y="-7"/>
    </contour>
    <contour>
      <point x="353" y="797" type="curve" smooth="yes"/>
      <point x="446" y="797"/>
      <point x="515" y="852"/>
      <point x="515" y="951" type="curve" smooth="yes"/>
      <point x="515" y="1052"/>
      <point x="446" y="1109"/>
      <point x="353" y="1109" type="curve" smooth="yes"/>
      <point x="261" y="1109"/>
      <point x="191" y="1052"/>
      <point x="191" y="951" type="curve" smooth="yes"/>
      <point x="191" y="850"/>
      <point x="263" y="797"/>
    </contour>
  </outline>
</glyph>
<glyph name="less" format="1">
  <advance width="1107"/>
  <unicode hex="003C"/>
  <outline>
    <contour>
      <point x="1002" y="177" type="line"/>
      <point x="1002" y="409" type="line"/>
      <point x="368" y="711" type="line"/>
      <point x="1002" y="1041" type="line"/>
      <point x="1002" y="1265" type="line"/>
      <point x="61" y="769" type="line"/>
      <point x="61" y="640" type="line"/>
    </contour>
  </outline>
</glyph>
<glyph name="question" format="1">
  <advance width="1041"/>
  <unicode hex="003F"/>
  <outline>
    <contour>
      <point x="324" y="489" type="curve"/>
      <point x="403" y="467" type="line"/>
      <point x="581" y="784"/>
      <point x="893" y="824"/>
      <point x="893" y="1191" type="curve" smooth="yes"/>
      <point x="893" y="1416"/>
      <point x="703" y="1538"/>
      <point x="489" y="1538" type="curve" smooth="yes"/>
      <point x="369" y="1538"/>
      <point x="212" y="1498"/>
      <point x="115" y="1405" type="curve"/>
      <point x="189" y="1184" type="line"/>
      <point x="261" y="1225"/>
      <point x="356" y="1260"/>
      <point x="437" y="1260" type="curve" smooth="yes"/>
      <point x="552" y="1260"/>
      <point x="599" y="1194"/>
      <point x="599" y="1101" type="curve" smooth="yes"/>
      <point x="599" y="944"/>
      <point x="427" y="842"/>
    </contour>
    <contour>
      <point x="367" y="-18" type="curve" smooth="yes"/>
      <point x="459" y="-18"/>
      <point x="514" y="43"/>
      <point x="514" y="133" type="curve" smooth="yes"/>
      <point x="514" y="223"/>
      <point x="459" y="284"/>
      <point x="367" y="284" type="curve" smooth="yes"/>
      <point x="271" y="284"/>
      <point x="214" y="223"/>
      <point x="214" y="133" type="curve" smooth="yes"/>
      <point x="214" y="44"/>
      <point x="271" y="-18"/>
    </contour>
  </outline>
</glyph>
<glyph name="A" format="1">
  <advance width="1517"/>
  <unicode hex="0041"/>
  <outline>
    <contour>
      <point x="764" y="1456" type="move" name="top"/>
    </contour>
    <contour>
      <point x="1295" y="0" type="move" name="ogonek"/>
    </contour>
    <contour>
      <point x="763" y="0" type="move" name="bot"/>
    </contour>
    <contour>
      <point x="58" y="0" type="line"/>
      <point x="398" y="0" type="line"/>
      <point x="524" y="382" type="line"/>
      <point x="987" y="382" type="line"/>
      <point x="1118" y="0" type="line"/>
      <point x="1459" y="0" type="line"/>
      <point x="968" y="1456" type="line"/>
      <point x="552" y="1456" type="line"/>
    </contour>
    <contour>
      <point x="588" y="592" type="line"/>
      <point x="760" y="1174" type="line"/>
      <point x="927" y="592" type="line"/>
    </contour>
  </outline>
</glyph>
<glyph name="C" format="1">
  <advance width="1558"/>
  <unicode hex="0043"/>
  <outline>
    <contour>
      <point x="858" y="1456" type="move" name="top"/>
    </contour>
    <contour>
      <point x="846" y="0" type="move" name="bot"/>
    </contour>
    <contour>
      <point x="841" y="-20" type="curve" smooth="yes"/>
      <point x="1251" y="-20"/>
      <point x="1414" y="225"/>
      <point x="1454" y="413" type="curve"/>
      <point x="1206" y="500" type="line"/>
      <point x="1181" y="500" type="line"/>
      <point x="1146" y="335"/>
      <point x="1041" y="215"/>
      <point x="852" y="215" type="curve" smooth="yes"/>
      <point x="636" y="215"/>
      <point x="484" y="356"/>
      <point x="484" y="732" type="curve" smooth="yes"/>
      <point x="484" y="1132"/>
      <point x="661" y="1241"/>
      <point x="857" y="1241" type="curve" smooth="yes"/>
      <point x="1044" y="1241"/>
      <point x="1144" y="1119"/>
      <point x="1180" y="955" type="curve"/>
      <point x="1205" y="955" type="line"/>
      <point x="1453" y="1042" type="line"/>
      <point x="1413" y="1226"/>
      <point x="1239" y="1478"/>
      <point x="839" y="1478" type="curve" smooth="yes"/>
      <point x="391" y="1478"/>
      <point x="124" y="1204"/>
      <point x="124" y="732" type="curve" smooth="yes"/>
      <point x="124" y="251"/>
      <point x="392" y="-20"/>
    </contour>
  </outline>
</glyph>
<glyph name="G" format="1">
  <advance width="1569"/>
  <unicode hex="0047"/>
  <outline>
    <contour>
      <point x="828" y="1456" type="move" name="top"/>
    </contour>
    <contour>
      <point x="770" y="0" type="move" name="bot"/>
    </contour>
    <contour>
      <point x="842" y="-20" type="curve" smooth="yes"/>
      <point x="1078" y="-20"/>
      <point x="1284" y="27"/>
      <point x="1421" y="81" type="curve"/>
      <point x="1421" y="791" type="line"/>
      <point x="838" y="791" type="line"/>
      <point x="829" y="596" type="line"/>
      <point x="1139" y="575" type="line"/>
      <point x="1139" y="244" type="line"/>
      <point x="1111" y="236"/>
      <point x="1018" y="214"/>
      <point x="895" y="214" type="curve" smooth="yes"/>
      <point x="656" y="214"/>
      <point x="484" y="342"/>
      <point x="484" y="729" type="curve" smooth="yes"/>
      <point x="484" y="1064"/>
      <point x="650" y="1239"/>
      <point x="910" y="1239" type="curve" smooth="yes"/>
      <point x="1068" y="1239"/>
      <point x="1179" y="1173"/>
      <point x="1249" y="1067" type="curve"/>
      <point x="1268" y="1069" type="line"/>
      <point x="1434" y="1224" type="line"/>
      <point x="1338" y="1371"/>
      <point x="1175" y="1477"/>
      <point x="884" y="1477" type="curve" smooth="yes"/>
      <point x="450" y="1477"/>
      <point x="124" y="1222"/>
      <point x="124" y="729" type="curve" smooth="yes"/>
      <point x="124" y="252"/>
      <point x="390" y="-20"/>
    </contour>
  </outline>
</glyph>
<glyph name="H" format="1">
  <advance width="1582"/>
  <unicode hex="0048"/>
  <outline>
    <contour>
      <point x="803" y="1456" type="move" name="top"/>
    </contour>
    <contour>
      <point x="179" y="0" type="line"/>
      <point x="519" y="0" type="line"/>
      <point x="519" y="632" type="line"/>
      <point x="1063" y="632" type="line"/>
      <point x="1063" y="0" type="line"/>
      <point x="1403" y="0" type="line"/>
      <point x="1403" y="1456" type="line"/>
      <point x="1063" y="1456" type="line"/>
      <point x="1063" y="861" type="line"/>
      <point x="519" y="861" type="line"/>
      <point x="519" y="1456" type="line"/>
      <point x="179" y="1456" type="line"/>
    </contour>
  </outline>
</glyph>
<glyph name="L" format="1">
  <advance width="1182"/>
  <unicode hex="004C"/>
  <outline>
    <contour>
      <point x="388" y="1456" type="move" name="top"/>
    </contour>
    <contour>
      <point x="573" y="0" type="move" name="bot"/>
    </contour>
    <contour>
      <point x="369" y="802" type="move" name="mid"/>
    </contour>
    <contour>
      <point x="178" y="0" type="line"/>
      <point x="1150" y="0" type="line"/>
      <point x="1168" y="219" type="line"/>
      <point x="518" y="219" type="line"/>
      <point x="518" y="1456" type="line"/>
      <point x="178" y="1456" type="line"/>
    </contour>
  </outline>
</glyph>
<glyph name="M" format="1">
  <advance width="1885"/>
  <unicode hex="004D"/>
  <outline>
    <contour>
      <point x="947" y="1456" type="move" name="top"/>
    </contour>
    <contour>
      <point x="160" y="-5" type="line"/>
      <point x="476" y="-5" type="line"/>
      <point x="476" y="538" type="line"/>
      <point x="484" y="974" type="line"/>
      <point x="833" y="223" type="line"/>
      <point x="1045" y="223" type="line"/>
      <point x="1399" y="972" type="line"/>
      <point x="1406" y="541" type="line"/>
      <point x="1406" y="-5" type="line"/>
      <point x="1726" y="-5" type="line"/>
      <point x="1726" y="591" type="line"/>
      <point x="1703" y="1456" type="line"/>
      <point x="1359" y="1456" type="line"/>
      <point x="947" y="602" type="line"/>
      <point x="534" y="1456" type="line"/>
      <point x="182" y="1456" type="line"/>
      <point x="160" y="585" type="line"/>
    </contour>
  </outline>
</glyph>
<glyph name="O" format="1">
  <advance width="1652"/>
  <unicode hex="004F"/>
  <outline>
    <contour>
      <point x="820" y="1456" type="move" name="top"/>
    </contour>
    <contour>
      <point x="822" y="0" type="move" name="ogonek"/>
    </contour>
    <contour>
      <point x="828" y="225" type="curve" smooth="yes"/>
      <point x="596" y="225"/>
      <point x="485" y="408"/>
      <point x="485" y="721" type="curve" smooth="yes"/>
      <point x="485" y="1037"/>
      <point x="599" y="1230"/>
      <point x="828" y="1230" type="curve" smooth="yes"/>
      <point x="1058" y="1230"/>
      <point x="1166" y="1036"/>
      <point x="1166" y="721" type="curve" smooth="yes"/>
      <point x="1166" y="409"/>
      <point x="1059" y="225"/>
    </contour>
    <contour>
      <point x="828" y="-21" type="curve" smooth="yes"/>
      <point x="1283" y="-21"/>
      <point x="1527" y="252"/>
      <point x="1527" y="723" type="curve" smooth="yes"/>
      <point x="1527" y="1195"/>
      <point x="1279" y="1477"/>
      <point x="828" y="1477" type="curve" smooth="yes"/>
      <point x="375" y="1477"/>
      <point x="125" y="1196"/>
      <point x="125" y="722" type="curve" smooth="yes"/>
      <point x="125" y="251"/>
      <point x="373" y="-21"/>
    </contour>
  </outline>
</glyph>
<glyph name="Q" format="1">
  <advance width="1648"/>
  <unicode hex="0051"/>
  <outline>
    <contour>
      <point x="1228" y="-515" type="curve"/>
      <point x="1442" y="-340" type="line"/>
      <point x="1269" y="-187"/>
      <point x="1152" y="-39"/>
      <point x="1064" y="114" type="curve"/>
      <point x="765" y="76" type="line"/>
      <point x="813" y="-53"/>
      <point x="1057" y="-368"/>
    </contour>
    <component base="O"/>
  </outline>
</glyph>
<glyph name="R" format="1">
  <advance width="1465"/>
  <unicode hex="0052"/>
  <outline>
    <contour>
      <point x="748" y="1456" type="move" name="top"/>
    </contour>
    <contour>
      <point x="743" y="0" type="move" name="bot"/>
    </contour>
    <contour>
      <point x="180" y="0" type="line"/>
      <point x="519" y="0" type="line"/>
      <point x="519" y="618" type="line"/>
      <point x="722" y="619" type="line"/>
      <point x="1037" y="0" type="line"/>
      <point x="1406" y="0" type="line"/>
      <point x="1406" y="17" type="line"/>
      <point x="1060" y="665" type="line"/>
      <point x="1207" y="708"/>
      <point x="1337" y="806"/>
      <point x="1337" y="1043" type="curve" smooth="yes"/>
      <point x="1338" y="1375"/>
      <point x="1181" y="1466"/>
      <point x="727" y="1466" type="curve" smooth="yes"/>
      <point x="581" y="1466"/>
      <point x="331" y="1461"/>
      <point x="180" y="1452" type="curve"/>
    </contour>
    <contour>
      <point x="519" y="825" type="line"/>
      <point x="519" y="1238" type="line"/>
      <point x="598" y="1244"/>
      <point x="676" y="1247"/>
      <point x="741" y="1247" type="curve" smooth="yes"/>
      <point x="945" y="1247"/>
      <point x="1028" y="1195"/>
      <point x="1028" y="1047" type="curve" smooth="yes"/>
      <point x="1028" y="879"/>
      <point x="952" y="825"/>
      <point x="730" y="825" type="curve" smooth="yes"/>
    </contour>
  </outline>
</glyph>
<glyph name="S" format="1">
  <advance width="1253"/>
  <unicode hex="0053"/>
  <outline>
    <contour>
      <point x="603" y="1463" type="move" name="top"/>
    </contour>
    <contour>
      <point x="622" y="0" type="move" name="bot"/>
    </contour>
    <contour>
      <point x="624" y="-20" type="curve" smooth="yes"/>
      <point x="918" y="-20"/>
      <point x="1151" y="120"/>
      <point x="1151" y="408" type="curve" smooth="yes"/>
      <point x="1151" y="668"/>
      <point x="1020" y="754"/>
      <point x="805" y="840" type="curve"/>
      <point x="626" y="913" type="line"/>
      <point x="490" y="967"/>
      <point x="443" y="1000"/>
      <point x="443" y="1089" type="curve" smooth="yes"/>
      <point x="443" y="1203"/>
      <point x="534" y="1250"/>
      <point x="638" y="1250" type="curve" smooth="yes"/>
      <point x="738" y="1250"/>
      <point x="833" y="1201"/>
      <point x="875" y="1103" type="curve"/>
      <point x="897" y="1103" type="line"/>
      <point x="1115" y="1215" type="line"/>
      <point x="1059" y="1351"/>
      <point x="892" y="1477"/>
      <point x="622" y="1477" type="curve" smooth="yes"/>
      <point x="350" y="1477"/>
      <point x="109" y="1364"/>
      <point x="109" y="1060" type="curve" smooth="yes"/>
      <point x="109" y="841"/>
      <point x="220" y="752"/>
      <point x="389" y="683" type="curve" smooth="yes"/>
      <point x="608" y="594" type="line" smooth="yes"/>
      <point x="777" y="524"/>
      <point x="812" y="484"/>
      <point x="812" y="389" type="curve" smooth="yes"/>
      <point x="812" y="272"/>
      <point x="718" y="223"/>
      <point x="601" y="223" type="curve" smooth="yes"/>
      <point x="479" y="223"/>
      <point x="370" y="281"/>
      <point x="320" y="383" type="curve"/>
      <point x="292" y="383" type="line"/>
      <point x="90" y="236" type="line"/>
      <point x="156" y="103"/>
      <point x="345" y="-20"/>
    </contour>
  </outline>
</glyph>
<glyph name="T" format="1">
  <advance width="1251"/>
  <unicode hex="0054"/>
  <outline>
    <contour>
      <point x="632" y="1456" type="move" name="top"/>
    </contour>
    <contour>
      <point x="632" y="0" type="move" name="bot"/>
    </contour>
    <contour>
      <point x="624" y="677" type="move" name="mid"/>
    </contour>
    <contour>
      <point x="456" y="-5" type="line"/>
      <point x="795" y="-5" type="line"/>
      <point x="795" y="1238" type="line"/>
      <point x="1217" y="1238" type="line"/>
      <point x="1217" y="1456" type="line"/>
      <point x="34" y="1456" type="line"/>
      <point x="34" y="1238" type="line"/>
      <point x="456" y="1238" type="line"/>
    </contour>
  </outline>
</glyph>
<glyph name="W" format="1">
  <advance width="2032"/>
  <unicode hex="0057"/>
  <outline>
    <contour>
      <point x="1023" y="1456" type="move" name="top"/>
    </contour>
    <contour>
      <point x="1003" y="0" type="move" name="bot"/>
    </contour>
    <contour>
      <point x="412" y="0" type="line"/>
      <point x="723" y="0" type="line"/>
      <point x="1013" y="1020" type="line"/>
      <point x="1290" y="0" type="line"/>
      <point x="1599" y="0" type="line"/>
      <point x="1977" y="1456" type="line"/>
      <point x="1650" y="1456" type="line"/>
      <point x="1431" y="439" type="line"/>
      <point x="1150" y="1445" type="line"/>
      <point x="875" y="1445" type="line"/>
      <point x="595" y="446" type="line"/>
      <point x="379" y="1456" type="line"/>
      <point x="55" y="1456" type="line"/>
    </contour>
  </outline>
</glyph>
<glyph name="bracketright" format="1">
  <advance width="965"/>
  <unicode hex="005D"/>
  <outline>
    <contour>
      <point x="295" y="-251" type="line"/>
      <point x="745" y="-251" type="line"/>
      <point x="745" y="1482" type="line"/>
      <point x="295" y="1482" type="line"/>
      <point x="295" y="1292" type="line"/>
      <point x="510" y="1292" type="line"/>
      <point x="510" y="-59" type="line"/>
      <point x="295" y="-59" type="line"/>
    </contour>
  </outline>
</glyph>
<glyph name="grave" format="1">
  <advance width="1045"/>
  <unicode hex="0060"/>
  <outline>
    <contour>
      <point x="540" y="1077" type="move" name="_top"/>
    </contour>
    <contour>
      <point x="419" y="1208" type="line"/>
      <point x="600" y="1208" type="line"/>
      <point x="421" y="1608" type="line"/>
      <point x="86" y="1608" type="line"/>
    </contour>
  </outline>
</glyph>
<glyph name="a" format="1">
  <advance width="1154"/>
  <unicode hex="0061"/>
  <outline>
    <contour>
      <point x="561" y="1082" type="move" name="top"/>
    </contour>
    <contour>
      <point x="898" y="0" type="move" name="ogonek"/>
    </contour>
    <contour>
      <point x="602" y="0" type="move" name="bot"/>
    </contour>
    <contour>
      <point x="428" y="-18" type="curve" smooth="yes"/>
      <point x="588" y="-18"/>
      <point x="690" y="41"/>
      <point x="766" y="122" type="curve"/>
      <point x="797" y="0" type="line"/>
      <point x="1036" y="0" type="line"/>
      <point x="1036" y="649" type="line" smooth="yes"/>
      <point x="1036" y="974"/>
      <point x="842" y="1102"/>
      <point x="586" y="1102" type="curve" smooth="yes"/>
      <point x="438" y="1102"/>
      <point x="274" y="1061"/>
      <point x="129" y="987" type="curve"/>
      <point x="193" y="790" type="line"/>
      <point x="310" y="844"/>
      <point x="439" y="878"/>
      <point x="536" y="878" type="curve" smooth="yes"/>
      <point x="653" y="878"/>
      <point x="724" y="829"/>
      <point x="724" y="704" type="curve" smooth="yes"/>
      <point x="724" y="619" type="line"/>
      <point x="553" y="621" type="line" smooth="yes"/>
      <point x="320" y="621"/>
      <point x="90" y="542"/>
      <point x="90" y="302" type="curve" smooth="yes"/>
      <point x="90" y="90"/>
      <point x="229" y="-18"/>
    </contour>
    <contour>
      <point x="526" y="161" type="curve" smooth="yes"/>
      <point x="447" y="161"/>
      <point x="377" y="202"/>
      <point x="377" y="306" type="curve" smooth="yes"/>
      <point x="377" y="429"/>
      <point x="479" y="469"/>
      <point x="624" y="469" type="curve" smooth="yes"/>
      <point x="722" y="469" type="line"/>
      <point x="722" y="248" type="line"/>
      <point x="683" y="202"/>
      <point x="614" y="161"/>
    </contour>
  </outline>
</glyph>
<glyph name="b" format="1">
  <advance width="1266"/>
  <unicode hex="0062"/>
  <outline>
    <contour>
      <point x="758" y="1082" type="move" name="top"/>
    </contour>
    <contour>
      <point x="730" y="-20" type="curve" smooth="yes"/>
      <point x="1026" y="-20"/>
      <point x="1177" y="213"/>
      <point x="1177" y="548" type="curve" smooth="yes"/>
      <point x="1177" y="863"/>
      <point x="1039" y="1103"/>
      <point x="750" y="1103" type="curve" smooth="yes"/>
      <point x="619" y="1103"/>
      <point x="513" y="1051"/>
      <point x="453" y="934" type="curve"/>
      <point x="462" y="1140" type="line"/>
      <point x="462" y="1560" type="line"/>
      <point x="144" y="1540" type="line"/>
      <point x="144" y="0" type="line"/>
      <point x="425" y="0" type="line"/>
      <point x="434" y="131" type="line"/>
      <point x="484" y="54"/>
      <point x="579" y="-20"/>
    </contour>
    <contour>
      <point x="662" y="188" type="curve" smooth="yes"/>
      <point x="555" y="188"/>
      <point x="500" y="227"/>
      <point x="459" y="281" type="curve"/>
      <point x="459" y="564" type="line" smooth="yes"/>
      <point x="459" y="812"/>
      <point x="554" y="894"/>
      <point x="677" y="894" type="curve" smooth="yes"/>
      <point x="791" y="894"/>
      <point x="854" y="803"/>
      <point x="854" y="548" type="curve" smooth="yes"/>
      <point x="854" y="295"/>
      <point x="774" y="188"/>
    </contour>
  </outline>
</glyph>
<glyph name="c" format="1">
  <advance width="1124"/>
  <unicode hex="0063"/>
  <outline>
    <contour>
      <point x="622" y="1082" type="move" name="top"/>
    </contour>
    <contour>
      <point x="624" y="0" type="move" name="bot"/>
    </contour>
    <contour>
      <point x="635" y="-20" type="curve" smooth="yes"/>
      <point x="850" y="-20"/>
      <point x="975" y="68"/>
      <point x="1051" y="235" type="curve"/>
      <point x="875" y="327" type="line"/>
      <point x="862" y="327" type="line"/>
      <point x="809" y="234"/>
      <point x="742" y="197"/>
      <point x="644" y="199" type="curve" smooth="yes"/>
      <point x="504" y="201"/>
      <point x="409" y="293"/>
      <point x="409" y="542" type="curve" smooth="yes"/>
      <point x="409" y="787"/>
      <point x="508" y="884"/>
      <point x="647" y="884" type="curve" smooth="yes"/>
      <point x="744" y="886"/>
      <point x="812" y="847"/>
      <point x="864" y="755" type="curve"/>
      <point x="877" y="755" type="line"/>
      <point x="1053" y="848" type="line"/>
      <point x="977" y="1015"/>
      <point x="852" y="1103"/>
      <point x="637" y="1103" type="curve" smooth="yes"/>
      <point x="301" y="1103"/>
      <point x="89" y="887"/>
      <point x="89" y="542" type="curve" smooth="yes"/>
      <point x="89" y="196"/>
      <point x="298" y="-20"/>
    </contour>
  </outline>
</glyph>
<glyph name="d" format="1">
  <advance width="1270"/>
  <unicode hex="0064"/>
  <outline>
    <contour>
      <point x="477" y="1082" type="move" name="top"/>
    </contour>
    <contour>
      <point x="1035" y="1116" type="move" name="caron.alt"/>
    </contour>
    <contour>
      <point x="943" y="1297" type="move" name="mid"/>
    </contour>
    <contour>
      <point x="531" y="-20" type="curve" smooth="yes"/>
      <point x="671" y="-20"/>
      <point x="774" y="47"/>
      <point x="833" y="146" type="curve"/>
      <point x="841" y="0" type="line"/>
      <point x="1124" y="0" type="line"/>
      <point x="1124" y="1560" type="line"/>
      <point x="806" y="1540" type="line"/>
      <point x="806" y="1141" type="line"/>
      <point x="811" y="982" type="line"/>
      <point x="758" y="1047"/>
      <point x="672" y="1102"/>
      <point x="539" y="1102" type="curve"/>
      <point x="242" y="1102"/>
      <point x="92" y="870"/>
      <point x="92" y="536" type="curve" smooth="yes"/>
      <point x="92" y="218"/>
      <point x="239" y="-20"/>
    </contour>
    <contour>
      <point x="607" y="189" type="curve" smooth="yes"/>
      <point x="493" y="189"/>
      <point x="412" y="275"/>
      <point x="412" y="536" type="curve" smooth="yes"/>
      <point x="412" y="819"/>
      <point x="504" y="896"/>
      <point x="616" y="896" type="curve" smooth="yes"/>
      <point x="708" y="896"/>
      <point x="768" y="856"/>
      <point x="807" y="805" type="curve"/>
      <point x="807" y="291" type="line"/>
      <point x="766" y="226"/>
      <point x="693" y="189"/>
    </contour>
  </outline>
</glyph>
<glyph name="e" format="1">
  <advance width="1188"/>
  <unicode hex="0065"/>
  <outline>
    <contour>
      <point x="624" y="1082" type="move" name="top"/>
    </contour>
    <contour>
      <point x="839" y="20" type="move" name="ogonek"/>
    </contour>
    <contour>
      <point x="656" y="0" type="move" name="bot"/>
    </contour>
    <contour>
      <point x="658" y="-20" type="curve" smooth="yes"/>
      <point x="834" y="-20"/>
      <point x="990" y="28"/>
      <point x="1075" y="104" type="curve"/>
      <point x="1012" y="272" type="line"/>
      <point x="995" y="272" type="line"/>
      <point x="905" y="220"/>
      <point x="817" y="188"/>
      <point x="695" y="188" type="curve" smooth="yes"/>
      <point x="536" y="188"/>
      <point x="419" y="281"/>
      <point x="408" y="463" type="curve"/>
      <point x="1080" y="463" type="line"/>
      <point x="1080" y="464"/>
      <point x="1092" y="526"/>
      <point x="1092" y="591" type="curve" smooth="yes"/>
      <point x="1084" y="894"/>
      <point x="949" y="1103"/>
      <point x="623" y="1103" type="curve" smooth="yes"/>
      <point x="305" y="1103"/>
      <point x="89" y="890"/>
      <point x="89" y="541" type="curve" smooth="yes"/>
      <point x="89" y="195"/>
      <point x="316" y="-20"/>
    </contour>
    <contour>
      <point x="403" y="632" type="line"/>
      <point x="414" y="819"/>
      <point x="508" y="898"/>
      <point x="635" y="898" type="curve" smooth="yes"/>
      <point x="757" y="898"/>
      <point x="823" y="819"/>
      <point x="824" y="632" type="curve"/>
    </contour>
  </outline>
</glyph>
<glyph name="f" format="1">
  <advance width="823"/>
  <unicode hex="0066"/>
  <outline>
    <contour>
      <point x="448" y="1456" type="move" name="top"/>
    </contour>
    <contour>
      <point x="197" y="0" type="line"/>
      <point x="518" y="0" type="line"/>
      <point x="518" y="899" type="line"/>
      <point x="785" y="899" type="line"/>
      <point x="785" y="1082" type="line"/>
      <point x="518" y="1082" type="line"/>
      <point x="518" y="1159" type="line" smooth="yes"/>
      <point x="518" y="1274"/>
      <point x="570" y="1310"/>
      <point x="682" y="1310" type="curve" smooth="yes"/>
      <point x="717" y="1310"/>
      <point x="759" y="1306"/>
      <point x="811" y="1299" type="curve"/>
      <point x="822" y="1493" type="line"/>
      <point x="798" y="1499"/>
      <point x="716" y="1520"/>
      <point x="571" y="1520" type="curve" smooth="yes"/>
      <point x="362" y="1520"/>
      <point x="197" y="1445"/>
      <point x="197" y="1159" type="curve" smooth="yes"/>
      <point x="197" y="1077" type="line"/>
      <point x="47" y="1057" type="line"/>
      <point x="42" y="899" type="line"/>
      <point x="197" y="899" type="line"/>
    </contour>
  </outline>
</glyph>
<glyph name="g" format="1">
  <advance width="1246"/>
  <unicode hex="0067"/>
  <outline>
    <contour>
      <point x="586" y="1082" type="move" name="top"/>
    </contour>
    <contour>
      <point x="578" y="-506" type="curve" smooth="yes"/>
      <point x="891" y="-506"/>
      <point x="1117" y="-353"/>
      <point x="1117" y="2" type="curve" smooth="yes"/>
      <point x="1117" y="1082" type="line"/>
      <point x="810" y="1082" type="line"/>
      <point x="808" y="986" type="line"/>
      <point x="756" y="1049"/>
      <point x="672" y="1103"/>
      <point x="543" y="1103" type="curve" smooth="yes"/>
      <point x="314" y="1103"/>
      <point x="87" y="938"/>
      <point x="87" y="560" type="curve" smooth="yes"/>
      <point x="87" y="118"/>
      <point x="320" y="-5"/>
      <point x="532" y="-5" type="curve" smooth="yes"/>
      <point x="664" y="-5"/>
      <point x="759" y="34"/>
      <point x="818" y="96" type="curve"/>
      <point x="825" y="41"/>
      <point x="826" y="-6"/>
      <point x="826" y="-16" type="curve" smooth="yes"/>
      <point x="826" y="-225"/>
      <point x="704" y="-297"/>
      <point x="525" y="-297" type="curve" smooth="yes"/>
      <point x="441" y="-297"/>
      <point x="343" y="-279"/>
      <point x="252" y="-249" type="curve"/>
      <point x="225" y="-249" type="line"/>
      <point x="202" y="-458" type="line"/>
      <point x="312" y="-491"/>
      <point x="441" y="-506"/>
    </contour>
    <contour>
      <point x="612" y="188" type="curve" smooth="yes"/>
      <point x="484" y="188"/>
      <point x="408" y="303"/>
      <point x="408" y="559" type="curve" smooth="yes"/>
      <point x="408" y="827"/>
      <point x="513" y="894"/>
      <point x="615" y="894" type="curve" smooth="yes"/>
      <point x="708" y="894"/>
      <point x="755" y="864"/>
      <point x="803" y="808" type="curve"/>
      <point x="803" y="259" type="line"/>
      <point x="760" y="216"/>
      <point x="685" y="188"/>
    </contour>
  </outline>
</glyph>
<glyph name="h" format="1">
  <advance width="1262"/>
  <unicode hex="0068"/>
  <outline>
    <contour>
      <point x="788" y="1372" type="move" name="top"/>
    </contour>
    <contour>
      <point x="371" y="1256" type="move" name="mid"/>
    </contour>
    <contour>
      <point x="144" y="0" type="line"/>
      <point x="465" y="0" type="line"/>
      <point x="465" y="615" type="line" smooth="yes"/>
      <point x="465" y="796"/>
      <point x="534" y="894"/>
      <point x="662" y="894" type="curve" smooth="yes"/>
      <point x="766" y="894"/>
      <point x="814" y="830"/>
      <point x="814" y="634" type="curve" smooth="yes"/>
      <point x="814" y="0" type="line"/>
      <point x="1135" y="0" type="line"/>
      <point x="1135" y="672" type="line" smooth="yes"/>
      <point x="1135" y="940"/>
      <point x="1022" y="1103"/>
      <point x="782" y="1103" type="curve" smooth="yes"/>
      <point x="626" y="1103"/>
      <point x="519" y="1037"/>
      <point x="459" y="909" type="curve"/>
      <point x="465" y="1156" type="line"/>
      <point x="465" y="1560" type="line"/>
      <point x="144" y="1540" type="line"/>
    </contour>
  </outline>
</glyph>
<glyph name="l" format="1">
  <advance width="729"/>
  <unicode hex="006C"/>
  <outline>
    <contour>
      <point x="333" y="1543" type="move" name="top"/>
    </contour>
    <contour>
      <point x="324" y="862" type="move" name="mid"/>
    </contour>
    <contour>
      <point x="661" y="-10" type="line"/>
      <point x="677" y="207" type="line"/>
      <point x="635" y="215" type="line" smooth="yes"/>
      <point x="502" y="238"/>
      <point x="471" y="291"/>
      <point x="471" y="646" type="curve" smooth="yes"/>
      <point x="471" y="1560" type="line"/>
      <point x="150" y="1540" type="line"/>
      <point x="150" y="652" type="line" smooth="yes"/>
      <point x="150" y="155"/>
      <point x="249" y="12"/>
      <point x="559" y="-5" type="curve" smooth="yes"/>
    </contour>
  </outline>
</glyph>
<glyph name="n" format="1">
  <advance width="1254"/>
  <unicode hex="006E"/>
  <outline>
    <contour>
      <point x="701" y="1082" type="move" name="top"/>
    </contour>
    <contour>
      <point x="644" y="0" type="move" name="bot"/>
    </contour>
    <contour>
      <point x="138" y="0" type="line"/>
      <point x="459" y="0" type="line"/>
      <point x="459" y="620" type="line" smooth="yes"/>
      <point x="459" y="803"/>
      <point x="533" y="894"/>
      <point x="656" y="894" type="curve" smooth="yes"/>
      <point x="762" y="894"/>
      <point x="807" y="824"/>
      <point x="807" y="635" type="curve" smooth="yes"/>
      <point x="807" y="0" type="line"/>
      <point x="1128" y="0" type="line"/>
      <point x="1128" y="667" type="line" smooth="yes"/>
      <point x="1128" y="940"/>
      <point x="1005" y="1103"/>
      <point x="763" y="1103" type="curve" smooth="yes"/>
      <point x="593" y="1103"/>
      <point x="489" y="1026"/>
      <point x="431" y="908" type="curve"/>
      <point x="413" y="1082" type="line"/>
      <point x="138" y="1082" type="line"/>
    </contour>
  </outline>
</glyph>
<glyph name="q" format="1">
  <advance width="1261"/>
  <unicode hex="0071"/>
  <outline>
    <contour>
      <point x="807" y="-472" type="line"/>
      <point x="1123" y="-472" type="line"/>
      <point x="1123" y="1082" type="line"/>
      <point x="840" y="1082" type="line"/>
      <point x="833" y="934" type="line"/>
      <point x="780" y="1030"/>
      <point x="685" y="1103"/>
      <point x="533" y="1103" type="curve" smooth="yes"/>
      <point x="243" y="1103"/>
      <point x="92" y="867"/>
      <point x="92" y="549" type="curve" smooth="yes"/>
      <point x="92" y="215"/>
      <point x="240" y="-20"/>
      <point x="538" y="-20" type="curve" smooth="yes"/>
      <point x="656" y="-20"/>
      <point x="751" y="27"/>
      <point x="810" y="97" type="curve"/>
      <point x="807" y="-45" type="line"/>
    </contour>
    <contour>
      <point x="617" y="188" type="curve" smooth="yes"/>
      <point x="504" y="188"/>
      <point x="413" y="264"/>
      <point x="413" y="549" type="curve" smooth="yes"/>
      <point x="413" y="808"/>
      <point x="494" y="894"/>
      <point x="606" y="894" type="curve" smooth="yes"/>
      <point x="694" y="894"/>
      <point x="765" y="856"/>
      <point x="807" y="787" type="curve"/>
      <point x="807" y="277" type="line"/>
      <point x="768" y="226"/>
      <point x="709" y="188"/>
    </contour>
  </outline>
</glyph>
<glyph name="r" format="1">
  <advance width="857"/>
  <unicode hex="0072"/>
  <outline>
    <contour>
      <point x="433" y="1082" type="move" name="top"/>
    </contour>
    <contour>
      <point x="348" y="0" type="move" name="bot"/>
    </contour>
    <contour>
      <point x="133" y="0" type="line"/>
      <point x="454" y="0" type="line"/>
      <point x="454" y="610" type="line" smooth="yes"/>
      <point x="454" y="766"/>
      <point x="577" y="851"/>
      <point x="724" y="851" type="curve" smooth="yes"/>
      <point x="737" y="851"/>
      <point x="776" y="849"/>
      <point x="800" y="844" type="curve"/>
      <point x="820" y="1079" type="line"/>
      <point x="784" y="1085"/>
      <point x="748" y="1089"/>
      <point x="711" y="1089" type="curve" smooth="yes"/>
      <point x="599" y="1089"/>
      <point x="496" y="1043"/>
      <point x="428" y="896" type="curve"/>
      <point x="410" y="1082" type="line"/>
      <point x="133" y="1082" type="line"/>
    </contour>
  </outline>
</glyph>
<glyph name="s" format="1">
  <advance width="1012"/>
  <unicode hex="0073"/>
  <outline>
    <contour>
      <point x="490" y="1082" type="move" name="top"/>
    </contour>
    <contour>
      <point x="509" y="0" type="move" name="bot"/>
    </contour>
    <contour>
      <point x="535" y="-20" type="curve" smooth="yes"/>
      <point x="789" y="-20"/>
      <point x="947" y="127"/>
      <point x="947" y="325" type="curve" smooth="yes"/>
      <point x="947" y="441"/>
      <point x="895" y="547"/>
      <point x="717" y="615" type="curve"/>
      <point x="544" y="689" type="line" smooth="yes"/>
      <point x="448" y="725"/>
      <point x="431" y="755"/>
      <point x="431" y="796" type="curve" smooth="yes"/>
      <point x="431" y="857"/>
      <point x="478" y="893"/>
      <point x="568" y="893" type="curve" smooth="yes"/>
      <point x="651" y="893"/>
      <point x="731" y="856"/>
      <point x="777" y="786" type="curve"/>
      <point x="791" y="786" type="line"/>
      <point x="935" y="909" type="line"/>
      <point x="853" y="1049"/>
      <point x="694" y="1103"/>
      <point x="514" y="1103" type="curve" smooth="yes"/>
      <point x="265" y="1103"/>
      <point x="106" y="982"/>
      <point x="106" y="789" type="curve" smooth="yes"/>
      <point x="106" y="634"/>
      <point x="181" y="546"/>
      <point x="398" y="465" type="curve" smooth="yes"/>
      <point x="533" y="413" type="line" smooth="yes"/>
      <point x="623" y="382"/>
      <point x="645" y="346"/>
      <point x="645" y="302" type="curve" smooth="yes"/>
      <point x="645" y="230"/>
      <point x="595" y="186"/>
      <point x="501" y="186" type="curve" smooth="yes"/>
      <point x="412" y="186"/>
      <point x="294" y="225"/>
      <point x="235" y="323" type="curve"/>
      <point x="209" y="323" type="line"/>
      <point x="60" y="195" type="line"/>
      <point x="149" y="51"/>
      <point x="326" y="-20"/>
    </contour>
  </outline>
</glyph>
<glyph name="u" format="1">
  <advance width="1256"/>
  <unicode hex="0075"/>
  <outline>
    <contour>
      <point x="632" y="1082" type="move" name="top"/>
    </contour>
    <contour>
      <point x="982" y="0" type="move" name="ogonek"/>
    </contour>
    <contour>
      <point x="624" y="0" type="move" name="bot"/>
    </contour>
    <contour>
      <point x="501" y="-20" type="curve" smooth="yes"/>
      <point x="670" y="-20"/>
      <point x="767" y="61"/>
      <point x="825" y="156" type="curve"/>
      <point x="841" y="0" type="line"/>
      <point x="1117" y="0" type="line"/>
      <point x="1117" y="1082" type="line"/>
      <point x="796" y="1082" type="line"/>
      <point x="796" y="288" type="line"/>
      <point x="763" y="243"/>
      <point x="705" y="188"/>
      <point x="605" y="188" type="curve" smooth="yes"/>
      <point x="496" y="188"/>
      <point x="447" y="255"/>
      <point x="447" y="444" type="curve" smooth="yes"/>
      <point x="447" y="1082" type="line"/>
      <point x="126" y="1082" type="line"/>
      <point x="126" y="408" type="line" smooth="yes"/>
      <point x="126" y="137"/>
      <point x="255" y="-20"/>
    </contour>
  </outline>
</glyph>
<glyph name="v" format="1">
  <advance width="1097"/>
  <unicode hex="0076"/>
  <outline>
    <contour>
      <point x="394" y="0" type="line"/>
      <point x="713" y="0" type="line"/>
      <point x="1080" y="1082" type="line"/>
      <point x="759" y="1082" type="line"/>
      <point x="720" y="966"/>
      <point x="604" y="470"/>
      <point x="565" y="354" type="curve"/>
      <point x="494" y="598"/>
      <point x="419" y="839"/>
      <point x="346" y="1082" type="curve"/>
      <point x="18" y="1082" type="line"/>
    </contour>
  </outline>
</glyph>
<glyph name="x" format="1">
  <advance width="1089"/>
  <unicode hex="0078"/>
  <outline>
    <contour>
      <point x="8" y="-5" type="line"/>
      <point x="312" y="-5" type="line"/>
      <point x="533" y="313" type="line"/>
      <point x="742" y="-5" type="line"/>
      <point x="1084" y="-5" type="line"/>
      <point x="719" y="546" type="line"/>
      <point x="1065" y="1082" type="line"/>
      <point x="766" y="1082" type="line"/>
      <point x="566" y="778" type="line"/>
      <point x="365" y="1082" type="line"/>
      <point x="27" y="1082" type="line"/>
      <point x="381" y="544" type="line"/>
    </contour>
  </outline>
</glyph>
<glyph name="y" format="1">
  <advance width="1135"/>
  <unicode hex="0079"/>
  <outline>
    <contour>
      <point x="559" y="1082" type="move" name="top"/>
    </contour>
    <contour>
      <point x="470" y="-445" type="line"/>
      <point x="1136" y="1082" type="line"/>
      <point x="838" y="1082" type="line"/>
      <point x="577" y="429" type="line"/>
      <point x="300" y="1082" type="line"/>
      <point x="-14" y="1082" type="line"/>
      <point x="419" y="127" type="line"/>
      <point x="213" y="-349" type="line"/>
    </contour>
  </outline>
</glyph>
<glyph name="braceleft" format="1">
  <advance width="939"/>
  <unicode hex="007B"/>
  <outline>
    <contour>
      <point x="808" y="-306" type="curve"/>
      <point x="808" y="-130" type="line"/>
      <point x="677" y="-127"/>
      <point x="630" y="-113"/>
      <point x="630" y="39" type="curve" smooth="yes"/>
      <point x="630" y="360" type="line" smooth="yes"/>
      <point x="630" y="482"/>
      <point x="608" y="599"/>
      <point x="431" y="632" type="curve"/>
      <point x="608" y="667"/>
      <point x="630" y="783"/>
      <point x="630" y="905" type="curve" smooth="yes"/>
      <point x="630" y="1226" type="line" smooth="yes"/>
      <point x="630" y="1378"/>
      <point x="677" y="1393"/>
      <point x="808" y="1395" type="curve"/>
      <point x="808" y="1572" type="line"/>
      <point x="591" y="1572"/>
      <point x="402" y="1540"/>
      <point x="402" y="1289" type="curve" smooth="yes"/>
      <point x="402" y="948" type="line" smooth="yes"/>
      <point x="402" y="820"/>
      <point x="394" y="732"/>
      <point x="189" y="732" type="curve"/>
      <point x="189" y="534" type="line"/>
      <point x="395" y="534"/>
      <point x="402" y="445"/>
      <point x="402" y="317" type="curve" smooth="yes"/>
      <point x="402" y="-23" type="line" smooth="yes"/>
      <point x="402" y="-275"/>
      <point x="591" y="-306"/>
    </contour>
  </outline>
</glyph>
<glyph name="sterling" format="1">
  <advance width="1203"/>
  <unicode hex="00A3"/>
  <outline>
    <contour>
      <point x="101" y="0" type="line"/>
      <point x="1104" y="0" type="line"/>
      <point x="1111" y="228" type="line"/>
      <point x="591" y="228" type="line"/>
      <point x="591" y="669" type="line"/>
      <point x="913" y="669" type="line"/>
      <point x="913" y="858" type="line"/>
      <point x="591" y="858" type="line"/>
      <point x="591" y="1022" type="line" smooth="yes"/>
      <point x="591" y="1196"/>
      <point x="662" y="1282"/>
      <point x="794" y="1282" type="curve" smooth="yes"/>
      <point x="864" y="1282"/>
      <point x="928" y="1255"/>
      <point x="999" y="1215" type="curve"/>
      <point x="1020" y="1215" type="line"/>
      <point x="1123" y="1408" type="line"/>
      <point x="1083" y="1443"/>
      <point x="941" y="1538"/>
      <point x="726" y="1538" type="curve" smooth="yes"/>
      <point x="383" y="1538"/>
      <point x="266" y="1311"/>
      <point x="266" y="975" type="curve" smooth="yes"/>
      <point x="266" y="858" type="line"/>
      <point x="82" y="858" type="line"/>
      <point x="82" y="669" type="line"/>
      <point x="266" y="669" type="line"/>
      <point x="266" y="226" type="line"/>
      <point x="90" y="204" type="line"/>
    </contour>
  </outline>
</glyph>
<glyph name="currency" format="1">
  <advance width="1121"/>
  <unicode hex="00A4"/>
  <outline>
    <contour>
      <point x="988" y="228" type="line"/>
      <point x="1083" y="330" type="line"/>
      <point x="907" y="504" type="line"/>
      <point x="952" y="574"/>
      <point x="976" y="653"/>
      <point x="976" y="740" type="curve" smooth="yes"/>
      <point x="976" y="828"/>
      <point x="949" y="909"/>
      <point x="906" y="977" type="curve"/>
      <point x="1084" y="1153" type="line"/>
      <point x="988" y="1255" type="line"/>
      <point x="807" y="1081" type="line"/>
      <point x="737" y="1136"/>
      <point x="657" y="1165"/>
      <point x="565" y="1165" type="curve" smooth="yes"/>
      <point x="475" y="1165"/>
      <point x="389" y="1132"/>
      <point x="322" y="1082" type="curve"/>
      <point x="146" y="1255" type="line"/>
      <point x="43" y="1154" type="line"/>
      <point x="224" y="977" type="line"/>
      <point x="179" y="905"/>
      <point x="154" y="827"/>
      <point x="154" y="740" type="curve" smooth="yes"/>
      <point x="154" y="653"/>
      <point x="181" y="571"/>
      <point x="224" y="504" type="curve"/>
      <point x="44" y="328" type="line"/>
      <point x="146" y="229" type="line"/>
      <point x="319" y="400" type="line"/>
      <point x="389" y="347"/>
      <point x="473" y="318"/>
      <point x="565" y="318" type="curve" smooth="yes"/>
      <point x="657" y="318"/>
      <point x="739" y="349"/>
      <point x="807" y="402" type="curve"/>
    </contour>
    <contour>
      <point x="565" y="467" type="curve" smooth="yes"/>
      <point x="418" y="467"/>
      <point x="301" y="588"/>
      <point x="301" y="740" type="curve" smooth="yes"/>
      <point x="301" y="892"/>
      <point x="418" y="1016"/>
      <point x="565" y="1016" type="curve" smooth="yes"/>
      <point x="713" y="1016"/>
      <point x="831" y="892"/>
      <point x="831" y="740" type="curve" smooth="yes"/>
      <point x="831" y="588"/>
      <point x="716" y="467"/>
    </contour>
  </outline>
</glyph>
<glyph name="brokenbar" format="1">
  <advance width="741"/>
  <unicode hex="00A6"/>
  <outline>
    <contour>
      <point x="256" y="-354" type="line"/>
      <point x="461" y="-354" type="line"/>
      <point x="461" y="348" type="line"/>
      <point x="256" y="348" type="line"/>
    </contour>
    <contour>
      <point x="256" y="768" type="line"/>
      <point x="461" y="768" type="line"/>
      <point x="461" y="1469" type="line"/>
      <point x="256" y="1469" type="line"/>
    </contour>
  </outline>
</glyph>
<glyph name="section" format="1">
  <advance width="1034"/>
  <unicode hex="00A7"/>
  <outline>
    <contour>
      <point x="518" y="-20" type="curve" smooth="yes"/>
      <point x="730" y="-12"/>
      <point x="888" y="79"/>
      <point x="888" y="339" type="curve" smooth="yes"/>
      <point x="888" y="424"/>
      <point x="857" y="498"/>
      <point x="787" y="557" type="curve"/>
      <point x="848" y="612"/>
      <point x="896" y="678"/>
      <point x="896" y="782" type="curve" smooth="yes"/>
      <point x="896" y="906"/>
      <point x="842" y="988"/>
      <point x="658" y="1061" type="curve" smooth="yes"/>
      <point x="430" y="1155"/>
      <point x="413" y="1181"/>
      <point x="413" y="1236" type="curve" smooth="yes"/>
      <point x="413" y="1298"/>
      <point x="466" y="1328"/>
      <point x="560" y="1328" type="curve" smooth="yes"/>
      <point x="647" y="1328"/>
      <point x="746" y="1300"/>
      <point x="810" y="1265" type="curve"/>
      <point x="866" y="1436" type="line"/>
      <point x="765" y="1500"/>
      <point x="639" y="1533"/>
      <point x="537" y="1533" type="curve" smooth="yes"/>
      <point x="356" y="1533"/>
      <point x="153" y="1460"/>
      <point x="153" y="1220" type="curve" smooth="yes"/>
      <point x="153" y="1115"/>
      <point x="200" y="1037"/>
      <point x="298" y="968" type="curve"/>
      <point x="223" y="909"/>
      <point x="164" y="834"/>
      <point x="164" y="746" type="curve" smooth="yes"/>
      <point x="164" y="615"/>
      <point x="247" y="549"/>
      <point x="424" y="476" type="curve" smooth="yes"/>
      <point x="609" y="402"/>
      <point x="644" y="364"/>
      <point x="644" y="309" type="curve" smooth="yes"/>
      <point x="644" y="230"/>
      <point x="592" y="187"/>
      <point x="499" y="187" type="curve" smooth="yes"/>
      <point x="385" y="187"/>
      <point x="250" y="238"/>
      <point x="175" y="281" type="curve"/>
      <point x="175" y="64" type="line"/>
      <point x="280" y="7"/>
      <point x="442" y="-24"/>
    </contour>
    <contour>
      <point x="660" y="630" type="curve"/>
      <point x="650" y="635"/>
      <point x="596" y="659"/>
      <point x="557" y="671" type="curve" smooth="yes"/>
      <point x="407" y="736"/>
      <point x="368" y="758"/>
      <point x="368" y="813" type="curve" smooth="yes"/>
      <point x="368" y="855"/>
      <point x="393" y="888"/>
      <point x="419" y="901" type="curve"/>
      <point x="423" y="899"/>
      <point x="494" y="871"/>
      <point x="567" y="839" type="curve" smooth="yes"/>
      <point x="665" y="798"/>
      <point x="696" y="755"/>
      <point x="696" y="709" type="curve" smooth="yes"/>
      <point x="696" y="677"/>
      <point x="682" y="651"/>
    </contour>
  </outline>
</glyph>
<glyph name="ordfeminine" format="1">
  <advance width="1152"/>
  <unicode hex="00AA"/>
  <outline>
    <contour>
      <point x="428" y="594" type="curve" smooth="yes"/>
      <point x="567" y="594"/>
      <point x="654" y="645"/>
      <point x="719" y="715" type="curve"/>
      <point x="746" y="609" type="line"/>
      <point x="953" y="609" type="line"/>
      <point x="953" y="1169" type="line" smooth="yes"/>
      <point x="953" y="1450"/>
      <point x="785" y="1560"/>
      <point x="564" y="1560" type="curve" smooth="yes"/>
      <point x="436" y="1560"/>
      <point x="296" y="1525"/>
      <point x="170" y="1461" type="curve"/>
      <point x="224" y="1291" type="line"/>
      <point x="326" y="1337"/>
      <point x="437" y="1367"/>
      <point x="521" y="1367" type="curve" smooth="yes"/>
      <point x="622" y="1367"/>
      <point x="683" y="1324"/>
      <point x="683" y="1217" type="curve" smooth="yes"/>
      <point x="683" y="1143" type="line"/>
      <point x="536" y="1145" type="line" smooth="yes"/>
      <point x="334" y="1145"/>
      <point x="136" y="1077"/>
      <point x="136" y="870" type="curve" smooth="yes"/>
      <point x="136" y="687"/>
      <point x="256" y="594"/>
    </contour>
    <contour>
      <point x="512" y="748" type="curve" smooth="yes"/>
      <point x="444" y="748"/>
      <point x="384" y="783"/>
      <point x="384" y="873" type="curve" smooth="yes"/>
      <point x="384" y="979"/>
      <point x="472" y="1014"/>
      <point x="598" y="1014" type="curve" smooth="yes"/>
      <point x="682" y="1014" type="line"/>
      <point x="682" y="823" type="line"/>
      <point x="648" y="784"/>
      <point x="588" y="748"/>
    </contour>
  </outline>
</glyph>
<glyph name="acute" format="1">
  <advance width="781"/>
  <unicode hex="00B4"/>
  <outline>
    <contour>
      <point x="468" y="1082" type="move" name="_top"/>
    </contour>
    <contour>
      <point x="373" y="1208" type="line"/>
      <point x="554" y="1208" type="line"/>
      <point x="884" y="1608" type="line"/>
      <point x="553" y="1608" type="line"/>
    </contour>
  </outline>
</glyph>
<glyph name="uni00B5" format="1">
  <advance width="1252"/>
  <unicode hex="00B5"/>
  <outline>
    <contour>
      <point x="1122" y="1082" type="line"/>
      <point x="801" y="1082" type="line"/>
      <point x="801" y="288" type="line"/>
      <point x="767" y="243"/>
      <point x="710" y="188"/>
      <point x="609" y="188" type="curve" smooth="yes"/>
      <point x="501" y="188"/>
      <point x="452" y="255"/>
      <point x="452" y="444" type="curve" smooth="yes"/>
      <point x="452" y="1082" type="line"/>
      <point x="131" y="1082" type="line"/>
      <point x="132" y="-319" type="line"/>
      <point x="452" y="-319" type="line"/>
      <point x="452" y="-2" type="line"/>
      <point x="502" y="-10"/>
      <point x="553" y="-9"/>
      <point x="606" y="2" type="curve" smooth="yes"/>
      <point x="713" y="23"/>
      <point x="783" y="84"/>
      <point x="830" y="156" type="curve"/>
      <point x="846" y="0" type="line"/>
      <point x="1122" y="0" type="line"/>
    </contour>
  </outline>
</glyph>
<glyph name="periodcentered" format="1">
  <advance width="608"/>
  <unicode hex="00B7"/>
  <outline>
    <contour>
      <point x="458" y="461" type="curve" smooth="yes"/>
      <point x="553" y="461"/>
      <point x="615" y="525"/>
      <point x="615" y="627" type="curve" smooth="yes"/>
      <point x="615" y="726"/>
      <point x="553" y="788"/>
      <point x="458" y="788" type="curve" smooth="yes"/>
      <point x="360" y="788"/>
      <point x="297" y="726"/>
      <point x="297" y="627" type="curve" smooth="yes"/>
      <point x="297" y="525"/>
      <point x="360" y="461"/>
    </contour>
  </outline>
</glyph>
<glyph name="guillemotright" format="1">
  <advance width="1188"/>
  <unicode hex="00BB"/>
  <outline>
    <contour>
      <point x="356" y="133" type="line"/>
      <point x="625" y="568" type="line"/>
      <point x="355" y="1006" type="line"/>
      <point x="105" y="1006" type="line"/>
      <point x="363" y="570" type="line"/>
      <point x="108" y="133" type="line"/>
    </contour>
    <contour>
      <point x="795" y="133" type="line"/>
      <point x="1065" y="568" type="line"/>
      <point x="794" y="1006" type="line"/>
      <point x="543" y="1006" type="line"/>
      <point x="803" y="570" type="line"/>
      <point x="548" y="133" type="line"/>
    </contour>
  </outline>
</glyph>
<glyph name="AE" format="1">
  <advance width="1949"/>
  <unicode hex="00C6"/>
  <outline>
    <contour>
      <point x="-12" y="0" type="line"/>
      <point x="324" y="0" type="line"/>
      <point x="540" y="381" type="line"/>
      <point x="924" y="381" type="line"/>
      <point x="924" y="0" type="line"/>
      <point x="1837" y="0" type="line"/>
      <point x="1846" y="226" type="line"/>
      <point x="1191" y="226" type="line"/>
      <point x="1191" y="631" type="line"/>
      <point x="1780" y="631" type="line"/>
      <point x="1780" y="852" type="line"/>
      <point x="1191" y="852" type="line"/>
      <point x="1191" y="1237" type="line"/>
      <point x="1808" y="1237" type="line"/>
      <point x="1825" y="1456" type="line"/>
      <point x="858" y="1456" type="line"/>
    </contour>
    <contour>
      <point x="635" y="582" type="line"/>
      <point x="924" y="1102" type="line"/>
      <point x="924" y="582" type="line"/>
    </contour>
  </outline>
</glyph>
<glyph name="multiply" format="1">
  <advance width="994"/>
  <unicode hex="00D7"/>
  <outline>
    <contour>
      <point x="228" y="120" type="line"/>
      <point x="501" y="402" type="line"/>
      <point x="772" y="122" type="line"/>
      <point x="907" y="268" type="line"/>
      <point x="907" y="268"/>
      <point x="702" y="481"/>
      <point x="639" y="547" type="curve"/>
      <point x="905" y="831" type="line"/>
      <point x="771" y="971" type="line"/>
      <point x="501" y="691" type="line"/>
      <point x="229" y="972" type="line"/>
      <point x="97" y="831" type="line"/>
      <point x="363" y="547" type="line"/>
      <point x="96" y="266" type="line"/>
    </contour>
  </outline>
</glyph>
<glyph name="Thorn" format="1">
  <advance width="1398"/>
  <unicode hex="00DE"/>
  <outline>
    <contour>
      <point x="174" y="0" type="line"/>
      <point x="514" y="0" type="line"/>
      <point x="514" y="349" type="line"/>
      <point x="661" y="349" type="line" smooth="yes"/>
      <point x="1139" y="349"/>
      <point x="1302" y="521"/>
      <point x="1302" y="831" type="curve" smooth="yes"/>
      <point x="1302" y="1129"/>
      <point x="1114" y="1254"/>
      <point x="625" y="1254" type="curve" smooth="yes"/>
      <point x="514" y="1254" type="line"/>
      <point x="514" y="1467" type="line"/>
      <point x="174" y="1467" type="line"/>
    </contour>
    <contour>
      <point x="514" y="570" type="line"/>
      <point x="514" y="1037" type="line"/>
      <point x="641" y="1037" type="line" smooth="yes"/>
      <point x="915" y="1037"/>
      <point x="974" y="957"/>
      <point x="974" y="817" type="curve" smooth="yes"/>
      <point x="974" y="667"/>
      <point x="905" y="570"/>
      <point x="618" y="570" type="curve" smooth="yes"/>
    </contour>
  </outline>
</glyph>
<glyph name="ae" format="1">
  <advance width="1732"/>
  <unicode hex="00E6"/>
  <outline>
    <contour>
      <point x="913" y="1082" type="move" name="top"/>
    </contour>
    <contour>
      <point x="1231" y="-20" type="curve" smooth="yes"/>
      <point x="1407" y="-20"/>
      <point x="1562" y="33"/>
      <point x="1647" y="109" type="curve"/>
      <point x="1591" y="284" type="line"/>
      <point x="1506" y="232"/>
      <point x="1402" y="188"/>
      <point x="1267" y="188" type="curve" smooth="yes"/>
      <point x="1133" y="188"/>
      <point x="1014" y="226"/>
      <point x="992" y="438" type="curve"/>
      <point x="1062" y="436"/>
      <point x="1130" y="436"/>
      <point x="1192" y="439" type="curve" smooth="yes"/>
      <point x="1473" y="453"/>
      <point x="1653" y="524"/>
      <point x="1653" y="731" type="curve" smooth="yes"/>
      <point x="1653" y="901"/>
      <point x="1537" y="1102"/>
      <point x="1239" y="1102" type="curve" smooth="yes"/>
      <point x="1068" y="1102"/>
      <point x="955" y="1037"/>
      <point x="884" y="926" type="curve"/>
      <point x="847" y="1039"/>
      <point x="728" y="1101"/>
      <point x="562" y="1101" type="curve" smooth="yes"/>
      <point x="406" y="1101"/>
      <point x="251" y="1056"/>
      <point x="101" y="977" type="curve"/>
      <point x="169" y="787" type="line"/>
      <point x="292" y="844"/>
      <point x="418" y="877"/>
      <point x="515" y="877" type="curve" smooth="yes"/>
      <point x="632" y="877"/>
      <point x="713" y="830"/>
      <point x="713" y="703" type="curve" smooth="yes"/>
      <point x="713" y="624" type="line"/>
      <point x="681" y="628"/>
      <point x="546" y="629"/>
      <point x="527" y="629" type="curve" smooth="yes"/>
      <point x="290" y="629"/>
      <point x="67" y="543"/>
      <point x="67" y="302" type="curve" smooth="yes"/>
      <point x="67" y="88"/>
      <point x="203" y="-13"/>
      <point x="404" y="-17" type="curve"/>
      <point x="594" y="-17"/>
      <point x="748" y="39"/>
      <point x="834" y="154" type="curve"/>
      <point x="908" y="55"/>
      <point x="1012" y="-20"/>
    </contour>
    <contour>
      <point x="499" y="161" type="curve" smooth="yes"/>
      <point x="430" y="161"/>
      <point x="353" y="202"/>
      <point x="353" y="305" type="curve" smooth="yes"/>
      <point x="353" y="429"/>
      <point x="447" y="477"/>
      <point x="595" y="477" type="curve" smooth="yes"/>
      <point x="612" y="477"/>
      <point x="680" y="475"/>
      <point x="716" y="472" type="curve" smooth="yes"/>
      <point x="716" y="449"/>
      <point x="733" y="328"/>
      <point x="746" y="298" type="curve" smooth="yes"/>
      <point x="727" y="222"/>
      <point x="623" y="161"/>
    </contour>
    <contour>
      <point x="994" y="614" type="curve"/>
      <point x="1006" y="821"/>
      <point x="1126" y="902"/>
      <point x="1245" y="902" type="curve" smooth="yes"/>
      <point x="1397" y="902"/>
      <point x="1437" y="830"/>
      <point x="1437" y="749" type="curve" smooth="yes"/>
      <point x="1437" y="657"/>
      <point x="1371" y="604"/>
    </contour>
  </outline>
</glyph>
<glyph name="thorn" format="1">
  <advance width="1202"/>
  <unicode hex="00FE"/>
  <outline>
    <contour>
      <point x="151" y="-430" type="line"/>
      <point x="374" y="-430" type="line"/>
      <point x="374" y="60" type="line"/>
      <point x="440" y="7"/>
      <point x="534" y="-20"/>
      <point x="630" y="-20" type="curve" smooth="yes"/>
      <point x="920" y="-20"/>
      <point x="1085" y="204"/>
      <point x="1085" y="549" type="curve" smooth="yes"/>
      <point x="1085" y="861"/>
      <point x="969" y="1108"/>
      <point x="678" y="1108" type="curve" smooth="yes"/>
      <point x="577" y="1108"/>
      <point x="444" y="1092"/>
      <point x="373" y="893" type="curve"/>
      <point x="384" y="1110" type="line"/>
      <point x="384" y="1560" type="line"/>
      <point x="151" y="1540" type="line"/>
    </contour>
    <contour>
      <point x="612" y="154" type="curve" smooth="yes"/>
      <point x="549" y="154"/>
      <point x="448" y="154"/>
      <point x="374" y="224" type="curve"/>
      <point x="374" y="543" type="line" smooth="yes"/>
      <point x="375" y="783"/>
      <point x="423" y="933"/>
      <point x="640" y="933" type="curve" smooth="yes"/>
      <point x="796" y="933"/>
      <point x="847" y="785"/>
      <point x="847" y="546" type="curve" smooth="yes"/>
      <point x="847" y="286"/>
      <point x="772" y="154"/>
    </contour>
  </outline>
</glyph>
<glyph name="kgreenlandic" format="1">
  <advance width="1167"/>
  <unicode hex="0138"/>
  <outline>
    <contour>
      <point x="118" y="0" type="line"/>
      <point x="371" y="0" type="line"/>
      <point x="371" y="368" type="line"/>
      <point x="457" y="452" type="line"/>
      <point x="798" y="0" type="line"/>
      <point x="1088" y="0" type="line"/>
      <point x="1088" y="10" type="line"/>
      <point x="650" y="588" type="line"/>
      <point x="1063" y="1063" type="line"/>
      <point x="1063" y="1082" type="line"/>
      <point x="769" y="1082" type="line"/>
      <point x="365" y="608" type="line"/>
      <point x="371" y="824" type="line"/>
      <point x="371" y="1082" type="line"/>
      <point x="118" y="1082" type="line"/>
    </contour>
  </outline>
</glyph>
<glyph name="Eng" format="1">
  <advance width="1610"/>
  <unicode hex="014A"/>
  <outline>
    <contour>
      <point x="1434" y="1456" type="line"/>
      <point x="1118" y="1456" type="line"/>
      <point x="1118" y="851" type="line"/>
      <point x="1134" y="468" type="line"/>
      <point x="501" y="1456" type="line"/>
      <point x="178" y="1456" type="line"/>
      <point x="178" y="0" type="line"/>
      <point x="502" y="0" type="line"/>
      <point x="502" y="576" type="line"/>
      <point x="485" y="957" type="line"/>
      <point x="1118" y="-14" type="line"/>
      <point x="1119" y="-240"/>
      <point x="1082" y="-283"/>
      <point x="822" y="-283" type="curve"/>
      <point x="843" y="-489" type="line"/>
      <point x="1291" y="-476"/>
      <point x="1434" y="-356"/>
      <point x="1434" y="-45" type="curve" smooth="yes"/>
    </contour>
  </outline>
</glyph>
<glyph name="eng" format="1">
  <advance width="1234"/>
  <unicode hex="014B"/>
  <outline>
    <contour>
      <point x="431" y="908" type="curve"/>
      <point x="413" y="1082" type="line"/>
      <point x="138" y="1082" type="line"/>
      <point x="138" y="0" type="line"/>
      <point x="459" y="0" type="line"/>
      <point x="459" y="620" type="line" smooth="yes"/>
      <point x="459" y="803"/>
      <point x="533" y="894"/>
      <point x="656" y="894" type="curve" smooth="yes"/>
      <point x="763" y="894"/>
      <point x="808" y="824"/>
      <point x="808" y="635" type="curve" smooth="yes"/>
      <point x="808" y="-17" type="line" smooth="yes"/>
      <point x="807" y="-243"/>
      <point x="774" y="-283"/>
      <point x="517" y="-283" type="curve"/>
      <point x="538" y="-489" type="line"/>
      <point x="994" y="-476"/>
      <point x="1128" y="-358"/>
      <point x="1128" y="-48" type="curve" smooth="yes"/>
      <point x="1128" y="667" type="line" smooth="yes"/>
      <point x="1128" y="940"/>
      <point x="1006" y="1103"/>
      <point x="763" y="1103" type="curve" smooth="yes"/>
      <point x="593" y="1103"/>
      <point x="489" y="1026"/>
    </contour>
  </outline>
</glyph>
<glyph name="OE" format="1">
  <advance width="2260"/>
  <unicode hex="0152"/>
  <outline>
    <contour>
      <point x="758" y="-17" type="curve" smooth="yes"/>
      <point x="927" y="-17"/>
      <point x="1041" y="18"/>
      <point x="1130" y="87" type="curve"/>
      <point x="1130" y="0" type="line"/>
      <point x="2113" y="0" type="line"/>
      <point x="2119" y="226" type="line"/>
      <point x="1404" y="226" type="line"/>
      <point x="1404" y="637" type="line"/>
      <point x="2055" y="637" type="line"/>
      <point x="2055" y="857" type="line"/>
      <point x="1404" y="857" type="line"/>
      <point x="1404" y="1237" type="line"/>
      <point x="2084" y="1237" type="line"/>
      <point x="2100" y="1456" type="line"/>
      <point x="1130" y="1456" type="line"/>
      <point x="1130" y="1374" type="line"/>
      <point x="1040" y="1446"/>
      <point x="928" y="1482"/>
      <point x="757" y="1482" type="curve" smooth="yes"/>
      <point x="330" y="1482"/>
      <point x="87" y="1210"/>
      <point x="87" y="727" type="curve" smooth="yes"/>
      <point x="87" y="252"/>
      <point x="328" y="-17"/>
    </contour>
    <contour>
      <point x="758" y="220" type="curve" smooth="yes"/>
      <point x="497" y="220"/>
      <point x="383" y="416"/>
      <point x="383" y="726" type="curve" smooth="yes"/>
      <point x="383" y="1045"/>
      <point x="500" y="1245"/>
      <point x="758" y="1245" type="curve" smooth="yes"/>
      <point x="1017" y="1245"/>
      <point x="1129" y="1044"/>
      <point x="1129" y="726" type="curve" smooth="yes"/>
      <point x="1129" y="416"/>
      <point x="1019" y="220"/>
    </contour>
  </outline>
</glyph>
<glyph name="florin" format="1">
  <advance width="1167"/>
  <unicode hex="0192"/>
  <outline>
    <contour>
      <point x="124" y="-381" type="curve" smooth="yes"/>
      <point x="331" y="-381"/>
      <point x="470" y="-227"/>
      <point x="532" y="114" type="curve" smooth="yes"/>
      <point x="679" y="960" type="line"/>
      <point x="984" y="960" type="line"/>
      <point x="999" y="1034" type="line"/>
      <point x="696" y="1034" type="line"/>
      <point x="745" y="1313" type="line" smooth="yes"/>
      <point x="773" y="1471"/>
      <point x="865" y="1525"/>
      <point x="941" y="1525" type="curve" smooth="yes"/>
      <point x="1054" y="1525"/>
      <point x="1082" y="1437"/>
      <point x="1096" y="1307" type="curve"/>
      <point x="1247" y="1307" type="line"/>
      <point x="1238" y="1547"/>
      <point x="1138" y="1691"/>
      <point x="913" y="1691" type="curve" smooth="yes"/>
      <point x="666" y="1691"/>
      <point x="512" y="1545"/>
      <point x="467" y="1267" type="curve" smooth="yes"/>
      <point x="430" y="1034" type="line"/>
      <point x="217" y="1034" type="line"/>
      <point x="201" y="960" type="line"/>
      <point x="419" y="960" type="line"/>
      <point x="272" y="106" type="line"/>
      <point x="233" y="-138"/>
      <point x="217" y="-240"/>
      <point x="72" y="-240" type="curve" smooth="yes"/>
      <point x="31" y="-240"/>
      <point x="-18" y="-231"/>
      <point x="-81" y="-220" type="curve"/>
      <point x="-110" y="-332" type="line"/>
      <point x="-22" y="-364"/>
      <point x="56" y="-381"/>
    </contour>
  </outline>
</glyph>
<glyph name="uni02C9" format="1">
  <advance width="600"/>
  <unicode hex="02C9"/>
  <outline>
    <contour>
      <point x="294" y="1077" type="move" name="_top"/>
    </contour>
    <contour>
      <point x="-55" y="1342" type="line"/>
      <point x="640" y="1342" type="line"/>
      <point x="640" y="1513" type="line"/>
      <point x="-55" y="1513" type="line"/>
    </contour>
  </outline>
</glyph>
<glyph name="breve" format="1">
  <advance width="923"/>
  <unicode hex="02D8"/>
  <outline>
    <contour>
      <point x="443" y="1077" type="move" name="_top"/>
    </contour>
    <contour>
      <point x="442" y="1314" type="curve" smooth="yes"/>
      <point x="614" y="1314"/>
      <point x="728" y="1413"/>
      <point x="728" y="1581" type="curve"/>
      <point x="555" y="1581" type="line"/>
      <point x="555" y="1517"/>
      <point x="506" y="1481"/>
      <point x="442" y="1481" type="curve" smooth="yes"/>
      <point x="377" y="1481"/>
      <point x="330" y="1517"/>
      <point x="330" y="1581" type="curve"/>
      <point x="154" y="1581" type="line"/>
      <point x="154" y="1413"/>
      <point x="269" y="1314"/>
    </contour>
  </outline>
</glyph>
<glyph name="uni0307" format="1">
  <advance width="592"/>
  <unicode hex="0307"/>
  <outline>
    <contour>
      <point x="299" y="1288" type="curve" smooth="yes"/>
      <point x="409" y="1288"/>
      <point x="476" y="1352"/>
      <point x="476" y="1455" type="curve" smooth="yes"/>
      <point x="476" y="1554"/>
      <point x="409" y="1615"/>
      <point x="299" y="1615" type="curve" smooth="yes"/>
      <point x="190" y="1615"/>
      <point x="122" y="1554"/>
      <point x="122" y="1455" type="curve" smooth="yes"/>
      <point x="122" y="1352"/>
      <point x="190" y="1288"/>
    </contour>
  </outline>
</glyph>
<glyph name="dblgravecomb" format="1">
  <advance width="1059"/>
  <unicode hex="030F"/>
  <outline>
    <contour>
      <point x="558" y="1077" type="move" name="_top"/>
    </contour>
    <contour>
      <point x="312" y="1256" type="line"/>
      <point x="463" y="1256" type="line"/>
      <point x="317" y="1649" type="line"/>
      <point x="44" y="1649" type="line"/>
    </contour>
    <contour>
      <point x="659" y="1256" type="line"/>
      <point x="819" y="1256" type="line"/>
      <point x="667" y="1649" type="line"/>
      <point x="419" y="1649" type="line"/>
    </contour>
  </outline>
</glyph>
<glyph name="breveinvertedcomb" format="1">
  <advance width="856"/>
  <unicode hex="0311"/>
  <outline>
    <contour>
      <point x="439" y="1077" type="move" name="_top"/>
    </contour>
    <contour>
      <point x="150" y="1314" type="curve"/>
      <point x="325" y="1314" type="line"/>
      <point x="325" y="1377"/>
      <point x="372" y="1414"/>
      <point x="437" y="1414" type="curve" smooth="yes"/>
      <point x="501" y="1414"/>
      <point x="550" y="1377"/>
      <point x="550" y="1314" type="curve"/>
      <point x="723" y="1314" type="line"/>
      <point x="723" y="1482"/>
      <point x="609" y="1581"/>
      <point x="437" y="1581" type="curve" smooth="yes"/>
      <point x="264" y="1581"/>
      <point x="150" y="1482"/>
    </contour>
  </outline>
</glyph>
<glyph name="commaturnedabovecomb" format="1">
  <advance width="600"/>
  <unicode hex="0312"/>
  <outline>
    <contour>
      <point x="291" y="1077" type="move" name="_top"/>
    </contour>
    <contour>
      <point x="150" y="1275" type="line"/>
      <point x="425" y="1275" type="line"/>
      <point x="425" y="1296"/>
      <point x="482" y="1789"/>
      <point x="482" y="1789" type="curve"/>
      <point x="290" y="1789" type="line"/>
      <point x="290" y="1789"/>
      <point x="158" y="1324"/>
      <point x="158" y="1293" type="curve"/>
    </contour>
  </outline>
</glyph>
<glyph name="pi" format="1">
  <advance width="1480"/>
  <unicode hex="03C0"/>
  <outline>
    <contour>
      <point x="1127" y="-13" type="curve" smooth="yes"/>
      <point x="1214" y="-17"/>
      <point x="1290" y="10"/>
      <point x="1324" y="44" type="curve"/>
      <point x="1324" y="171" type="line"/>
      <point x="1302" y="164"/>
      <point x="1266" y="151"/>
      <point x="1235" y="151" type="curve" smooth="yes"/>
      <point x="1173" y="151"/>
      <point x="1123" y="201"/>
      <point x="1123" y="330" type="curve" smooth="yes"/>
      <point x="1123" y="480"/>
      <point x="1127" y="692"/>
      <point x="1139" y="856" type="curve"/>
      <point x="1375" y="856" type="line"/>
      <point x="1375" y="1082" type="line"/>
      <point x="488" y="1082" type="line" smooth="yes"/>
      <point x="253" y="1082"/>
      <point x="179" y="941"/>
      <point x="179" y="725" type="curve"/>
      <point x="274" y="725" type="line"/>
      <point x="286" y="802"/>
      <point x="326" y="855"/>
      <point x="405" y="856" type="curve" smooth="yes"/>
      <point x="484" y="856" type="line"/>
      <point x="420" y="387" type="line" smooth="yes"/>
      <point x="391" y="172"/>
      <point x="257" y="111"/>
      <point x="191" y="111" type="curve"/>
      <point x="191" y="4" type="line"/>
      <point x="535" y="4"/>
      <point x="605" y="105"/>
      <point x="615" y="322" type="curve" smooth="yes"/>
      <point x="641" y="856" type="line"/>
      <point x="973" y="856" type="line"/>
      <point x="938" y="643"/>
      <point x="899" y="439"/>
      <point x="899" y="288" type="curve" smooth="yes"/>
      <point x="899" y="110"/>
      <point x="955" y="-3"/>
    </contour>
  </outline>
</glyph>
<glyph name="endash" format="1">
  <advance width="1203"/>
  <unicode hex="2013"/>
  <outline>
    <contour>
      <point x="122" y="459" type="line"/>
      <point x="1081" y="459" type="line"/>
      <point x="1081" y="663" type="line"/>
      <point x="122" y="663" type="line"/>
    </contour>
  </outline>
</glyph>
<glyph name="quoteleft" format="1">
  <advance width="529"/>
  <unicode hex="2018"/>
  <outline>
    <contour>
      <point x="124" y="1030" type="line"/>
      <point x="400" y="1030" type="line"/>
      <point x="438" y="1543" type="line"/>
      <point x="245" y="1543" type="line"/>
    </contour>
  </outline>
</glyph>
<glyph name="quoteright" format="1">
  <advance width="529"/>
  <unicode hex="2019"/>
  <outline>
    <contour>
      <point x="124" y="1030" type="line"/>
      <point x="318" y="1030" type="line"/>
      <point x="438" y="1543" type="line"/>
      <point x="162" y="1543" type="line"/>
    </contour>
  </outline>
</glyph>
<glyph name="quotesinglbase" format="1">
  <advance width="510"/>
  <unicode hex="201A"/>
  <outline>
    <contour>
      <point x="103" y="-365" type="line"/>
      <point x="294" y="-365" type="line"/>
      <point x="415" y="145" type="line"/>
      <point x="143" y="145" type="line"/>
    </contour>
  </outline>
</glyph>
<glyph name="quotedblleft" format="1">
  <advance width="960"/>
  <unicode hex="201C"/>
  <outline>
    <contour>
      <point x="124" y="1030" type="line"/>
      <point x="400" y="1030" type="line"/>
      <point x="438" y="1543" type="line"/>
      <point x="245" y="1543" type="line"/>
    </contour>
    <contour>
      <point x="534" y="1030" type="line"/>
      <point x="810" y="1030" type="line"/>
      <point x="848" y="1543" type="line"/>
      <point x="655" y="1543" type="line"/>
    </contour>
  </outline>
</glyph>
<glyph name="quotedblright" format="1">
  <advance width="960"/>
  <unicode hex="201D"/>
  <outline>
    <contour>
      <point x="124" y="1030" type="line"/>
      <point x="318" y="1030" type="line"/>
      <point x="438" y="1543" type="line"/>
      <point x="162" y="1543" type="line"/>
    </contour>
    <contour>
      <point x="534" y="1030" type="line"/>
      <point x="727" y="1030" type="line"/>
      <point x="848" y="1543" type="line"/>
      <point x="572" y="1543" type="line"/>
    </contour>
  </outline>
</glyph>
<glyph name="dagger" format="1">
  <advance width="1138"/>
  <unicode hex="2020"/>
  <outline>
    <contour>
      <point x="425" y="-64" type="line"/>
      <point x="705" y="-64" type="line"/>
      <point x="705" y="903" type="line"/>
      <point x="1025" y="903" type="line"/>
      <point x="1025" y="1090" type="line"/>
      <point x="711" y="1090" type="line"/>
      <point x="711" y="1466" type="line"/>
      <point x="425" y="1466" type="line"/>
      <point x="425" y="1090" type="line"/>
      <point x="123" y="1090" type="line"/>
      <point x="123" y="903" type="line"/>
      <point x="425" y="903" type="line"/>
    </contour>
  </outline>
</glyph>
<glyph name="daggerdbl" format="1">
  <advance width="1110"/>
  <unicode hex="2021"/>
  <outline>
    <contour>
      <point x="424" y="-110" type="line"/>
      <point x="704" y="-110" type="line"/>
      <point x="704" y="380" type="line"/>
      <point x="1019" y="380" type="line"/>
      <point x="1019" y="565" type="line"/>
      <point x="711" y="565" type="line"/>
      <point x="711" y="898" type="line"/>
      <point x="1020" y="898" type="line"/>
      <point x="1020" y="1084" type="line"/>
      <point x="710" y="1084" type="line"/>
      <point x="710" y="1461" type="line"/>
      <point x="424" y="1461" type="line"/>
      <point x="424" y="1084" type="line"/>
      <point x="124" y="1084" type="line"/>
      <point x="124" y="898" type="line"/>
      <point x="424" y="898" type="line"/>
      <point x="424" y="565" type="line"/>
      <point x="124" y="565" type="line"/>
      <point x="124" y="380" type="line"/>
      <point x="424" y="380" type="line"/>
    </contour>
  </outline>
</glyph>
<glyph name="bullet" format="1">
  <advance width="953"/>
  <unicode hex="2022"/>
  <outline>
    <contour>
      <point x="464" y="361" type="curve" smooth="yes"/>
      <point x="660" y="361"/>
      <point x="814" y="509"/>
      <point x="814" y="709" type="curve" smooth="yes"/>
      <point x="814" y="909"/>
      <point x="665" y="1051"/>
      <point x="471" y="1051" type="curve" smooth="yes"/>
      <point x="275" y="1051"/>
      <point x="120" y="903"/>
      <point x="120" y="704" type="curve" smooth="yes"/>
      <point x="120" y="505"/>
      <point x="268" y="361"/>
    </contour>
  </outline>
</glyph>
<glyph name="guilsinglleft" format="1">
  <advance width="792"/>
  <unicode hex="2039"/>
  <outline>
    <contour>
      <point x="394" y="121" type="line"/>
      <point x="684" y="121" type="line"/>
      <point x="422" y="558" type="line"/>
      <point x="689" y="1010" type="line"/>
      <point x="401" y="1010" type="line"/>
      <point x="120" y="560" type="line"/>
    </contour>
  </outline>
</glyph>
<glyph name="guilsinglright" format="1">
  <advance width="847"/>
  <unicode hex="203A"/>
  <outline>
    <contour>
      <point x="135" y="121" type="line"/>
      <point x="425" y="121" type="line"/>
      <point x="703" y="567" type="line"/>
      <point x="418" y="1025" type="line"/>
      <point x="131" y="1025" type="line"/>
      <point x="398" y="564" type="line"/>
    </contour>
  </outline>
</glyph>
<glyph name="fraction" format="1">
  <advance width="1149"/>
  <unicode hex="2044"/>
  <outline>
    <contour>
      <point x="64" y="0" type="line"/>
      <point x="266" y="0" type="line"/>
      <point x="1212" y="1550" type="line"/>
      <point x="1019" y="1550" type="line"/>
    </contour>
  </outline>
</glyph>
<glyph name="uni2113" format="1">
  <advance width="1330"/>
  <unicode hex="2113"/>
  <outline>
    <contour>
      <point x="627" y="-21" type="curve" smooth="yes"/>
      <point x="871" y="-21"/>
      <point x="1029" y="98"/>
      <point x="1029" y="98" type="curve"/>
      <point x="1001" y="284" type="line"/>
      <point x="898" y="240"/>
      <point x="805" y="209"/>
      <point x="725" y="209" type="curve" smooth="yes"/>
      <point x="654" y="209"/>
      <point x="612" y="240"/>
      <point x="612" y="319" type="curve" smooth="yes"/>
      <point x="612" y="346"/>
      <point x="617" y="379"/>
      <point x="626" y="417" type="curve" smooth="yes"/>
      <point x="685" y="655" type="line"/>
      <point x="972" y="865" type="line" smooth="yes"/>
      <point x="1225" y="1049"/>
      <point x="1326" y="1142"/>
      <point x="1326" y="1352" type="curve" smooth="yes"/>
      <point x="1326" y="1582"/>
      <point x="1144" y="1704"/>
      <point x="956" y="1704" type="curve" smooth="yes"/>
      <point x="793" y="1704"/>
      <point x="627" y="1614"/>
      <point x="567" y="1396" type="curve" smooth="yes"/>
      <point x="363" y="642" type="line"/>
      <point x="69" y="428" type="line"/>
      <point x="125" y="324" type="line"/>
      <point x="314" y="460" type="line"/>
      <point x="300" y="402"/>
      <point x="293" y="349"/>
      <point x="293" y="302" type="curve" smooth="yes"/>
      <point x="293" y="50"/>
      <point x="462" y="-21"/>
    </contour>
    <contour>
      <point x="724" y="842" type="line"/>
      <point x="837" y="1266" type="line" smooth="yes"/>
      <point x="876" y="1415"/>
      <point x="943" y="1505"/>
      <point x="1027" y="1505" type="curve" smooth="yes"/>
      <point x="1105" y="1505"/>
      <point x="1159" y="1440"/>
      <point x="1159" y="1354" type="curve" smooth="yes"/>
      <point x="1159" y="1212"/>
      <point x="1070" y="1099"/>
      <point x="901" y="975" type="curve" smooth="yes"/>
    </contour>
  </outline>
</glyph>
<glyph name="estimated" format="1">
  <advance width="1283"/>
  <unicode hex="212E"/>
  <outline>
    <contour>
      <point x="690" y="305" type="curve" smooth="yes"/>
      <point x="894" y="305"/>
      <point x="1026" y="392"/>
      <point x="1124" y="510" type="curve"/>
      <point x="1074" y="560" type="line"/>
      <point x="978" y="456"/>
      <point x="868" y="378"/>
      <point x="690" y="378" type="curve" smooth="yes"/>
      <point x="465" y="378"/>
      <point x="383" y="564"/>
      <point x="382" y="836" type="curve"/>
      <point x="1132" y="836" type="line"/>
      <point x="1132" y="1176"/>
      <point x="988" y="1402"/>
      <point x="673" y="1402" type="curve" smooth="yes"/>
      <point x="357" y="1402"/>
      <point x="131" y="1169"/>
      <point x="131" y="856" type="curve" smooth="yes"/>
      <point x="131" y="542"/>
      <point x="316" y="305"/>
    </contour>
    <contour>
      <point x="382" y="916" type="line"/>
      <point x="399" y="1171"/>
      <point x="510" y="1342"/>
      <point x="679" y="1342" type="curve" smooth="yes"/>
      <point x="885" y="1342"/>
      <point x="985" y="1146"/>
      <point x="985" y="916" type="curve"/>
    </contour>
  </outline>
</glyph>
<glyph name="uni2206" format="1">
  <advance width="1321"/>
  <unicode hex="2206"/>
  <outline>
    <contour>
      <point x="71" y="0" type="line"/>
      <point x="1256" y="0" type="line"/>
      <point x="1256" y="124" type="line"/>
      <point x="759" y="1579" type="line"/>
      <point x="568" y="1579" type="line"/>
      <point x="71" y="124" type="line"/>
    </contour>
    <contour>
      <point x="273" y="214" type="line"/>
      <point x="596" y="1139" type="line"/>
      <point x="630" y="1261" type="line"/>
      <point x="664" y="1139" type="line"/>
      <point x="987" y="214" type="line"/>
    </contour>
  </outline>
</glyph>
<glyph name="summation" format="1">
  <advance width="1170"/>
  <unicode hex="2211"/>
  <outline>
    <contour>
      <point x="66" y="-257" type="line"/>
      <point x="1116" y="-257" type="line"/>
      <point x="1116" y="-11" type="line"/>
      <point x="407" y="-11" type="line"/>
      <point x="896" y="599" type="line"/>
      <point x="463" y="1215" type="line"/>
      <point x="1080" y="1215" type="line"/>
      <point x="1080" y="1456" type="line"/>
      <point x="75" y="1456" type="line"/>
      <point x="75" y="1256" type="line"/>
      <point x="565" y="587" type="line"/>
      <point x="66" y="-62" type="line"/>
    </contour>
  </outline>
</glyph>
<glyph name="radical" format="1">
  <advance width="1330"/>
  <unicode hex="221A"/>
  <outline>
    <contour>
      <point x="535" y="-167" type="line"/>
      <point x="798" y="-167" type="line"/>
      <point x="1299" y="1602" type="line"/>
      <point x="1088" y="1602"/>
      <point x="1039" y="1605"/>
      <point x="1039" y="1605" type="curve"/>
      <point x="990" y="1411"/>
      <point x="674" y="356"/>
      <point x="622" y="151" type="curve"/>
      <point x="587" y="267"/>
      <point x="450" y="657"/>
      <point x="350" y="950" type="curve"/>
      <point x="23" y="856" type="line"/>
      <point x="49" y="732" type="line"/>
      <point x="192" y="771" type="line"/>
    </contour>
  </outline>
</glyph>
<glyph name="infinity" format="1">
  <advance width="1756"/>
  <unicode hex="221E"/>
  <outline>
    <contour>
      <point x="465" y="255" type="curve" smooth="yes"/>
      <point x="632" y="255"/>
      <point x="764" y="369"/>
      <point x="884" y="532" type="curve"/>
      <point x="1021" y="345"/>
      <point x="1146" y="255"/>
      <point x="1299" y="255" type="curve" smooth="yes"/>
      <point x="1499" y="255"/>
      <point x="1655" y="418"/>
      <point x="1655" y="652" type="curve" smooth="yes"/>
      <point x="1655" y="875"/>
      <point x="1528" y="1037"/>
      <point x="1301" y="1037" type="curve" smooth="yes"/>
      <point x="1126" y="1037"/>
      <point x="999" y="920"/>
      <point x="884" y="758" type="curve"/>
      <point x="761" y="925"/>
      <point x="632" y="1037"/>
      <point x="461" y="1037" type="curve" smooth="yes"/>
      <point x="263" y="1037"/>
      <point x="105" y="874"/>
      <point x="105" y="670" type="curve" smooth="yes"/>
      <point x="105" y="446"/>
      <point x="238" y="255"/>
    </contour>
    <contour>
      <point x="467" y="447" type="curve" smooth="yes"/>
      <point x="351" y="447"/>
      <point x="272" y="548"/>
      <point x="272" y="648" type="curve" smooth="yes"/>
      <point x="272" y="757"/>
      <point x="344" y="848"/>
      <point x="460" y="848" type="curve" smooth="yes"/>
      <point x="572" y="848"/>
      <point x="664" y="768"/>
      <point x="746" y="647" type="curve"/>
      <point x="663" y="531"/>
      <point x="568" y="447"/>
    </contour>
    <contour>
      <point x="1301" y="447" type="curve" smooth="yes"/>
      <point x="1203" y="447"/>
      <point x="1127" y="512"/>
      <point x="1025" y="649" type="curve"/>
      <point x="1103" y="760"/>
      <point x="1193" y="848"/>
      <point x="1297" y="848" type="curve" smooth="yes"/>
      <point x="1405" y="848"/>
      <point x="1480" y="767"/>
      <point x="1480" y="675" type="curve" smooth="yes"/>
      <point x="1480" y="539"/>
      <point x="1424" y="447"/>
    </contour>
  </outline>
</glyph>
<glyph name="integral" format="1">
  <advance width="791"/>
  <unicode hex="222B"/>
  <outline>
    <contour>
      <point x="196" y="-485" type="curve" smooth="yes"/>
      <point x="418" y="-485"/>
      <point x="535" y="-312"/>
      <point x="535" y="-35" type="curve" smooth="yes"/>
      <point x="535" y="1190" type="line" smooth="yes"/>
      <point x="535" y="1350"/>
      <point x="564" y="1419"/>
      <point x="676" y="1419" type="curve" smooth="yes"/>
      <point x="699" y="1419"/>
      <point x="726" y="1415"/>
      <point x="755" y="1410" type="curve"/>
      <point x="755" y="1590" type="line"/>
      <point x="688" y="1606"/>
      <point x="632" y="1615"/>
      <point x="583" y="1615" type="curve" smooth="yes"/>
      <point x="372" y="1615"/>
      <point x="274" y="1453"/>
      <point x="274" y="1181" type="curve" smooth="yes"/>
      <point x="274" y="-43" type="line" smooth="yes"/>
      <point x="274" y="-198"/>
      <point x="228" y="-248"/>
      <point x="147" y="-248" type="curve" smooth="yes"/>
      <point x="105" y="-248"/>
      <point x="72" y="-243"/>
      <point x="29" y="-236" type="curve"/>
      <point x="29" y="-461" type="line"/>
      <point x="94" y="-478"/>
      <point x="150" y="-485"/>
    </contour>
  </outline>
</glyph>
<glyph name="notequal" format="1">
  <advance width="1167"/>
  <unicode hex="2260"/>
  <outline>
    <contour>
      <point x="205" y="70" type="line"/>
      <point x="373" y="42" type="line"/>
      <point x="509" y="322" type="line"/>
      <point x="1065" y="322" type="line"/>
      <point x="1053" y="501" type="line"/>
      <point x="590" y="501" type="line"/>
      <point x="705" y="729" type="line"/>
      <point x="1065" y="729" type="line"/>
      <point x="1051" y="919" type="line"/>
      <point x="787" y="919" type="line"/>
      <point x="901" y="1160" type="line"/>
      <point x="732" y="1184" type="line"/>
      <point x="599" y="919" type="line"/>
      <point x="58" y="919" type="line"/>
      <point x="71" y="731" type="line"/>
      <point x="519" y="731" type="line"/>
      <point x="406" y="502" type="line"/>
      <point x="60" y="502" type="line"/>
      <point x="71" y="322" type="line"/>
      <point x="324" y="322" type="line"/>
    </contour>
  </outline>
</glyph>
<glyph name="lessequal" format="1">
  <advance width="1192"/>
  <unicode hex="2264"/>
  <outline>
    <contour>
      <point x="1046" y="307" type="line"/>
      <point x="1046" y="517" type="line"/>
      <point x="391" y="801" type="line"/>
      <point x="1048" y="1097" type="line"/>
      <point x="1048" y="1303" type="line"/>
      <point x="135" y="861" type="line"/>
      <point x="135" y="738" type="line"/>
    </contour>
    <contour>
      <point x="116" y="-3" type="line"/>
      <point x="1054" y="-3" type="line"/>
      <point x="1054" y="162" type="line"/>
      <point x="116" y="162" type="line"/>
    </contour>
  </outline>
</glyph>
<glyph name="slashbar" format="1">
  <advance width="433"/>
  <outline>
    <contour>
      <point x="428" y="672" type="move" name="_mid"/>
    </contour>
    <contour>
      <point x="150" y="455" type="line"/>
      <point x="809" y="703" type="line"/>
      <point x="809" y="923" type="line"/>
      <point x="150" y="674" type="line"/>
    </contour>
  </outline>
</glyph>
